<?xml version="1.0" encoding="UTF-8"?>
<!DOCTYPE svg PUBLIC "-//W3C//DTD SVG 1.1//EN" "http://www.w3.org/Graphics/SVG/1.1/DTD/svg11.dtd">
<!-- Creator: CorelDRAW -->
<svg xmlns="http://www.w3.org/2000/svg" xml:space="preserve" width="100mm" height="100mm" version="1.1" style="shape-rendering:geometricPrecision; text-rendering:geometricPrecision; image-rendering:optimizeQuality; fill-rule:evenodd; clip-rule:evenodd"
viewBox="0 0 10000 10000"
 xmlns:xlink="http://www.w3.org/1999/xlink"
 xmlns:xodm="http://www.corel.com/coreldraw/odm/2003">
 <defs>
  <style type="text/css">
   <![CDATA[
    .fil0 {fill:black}
    .fil3 {fill:#0B8982;fill-rule:nonzero}
    .fil1 {fill:#0F7250;fill-rule:nonzero}
    .fil5 {fill:#167B6E;fill-rule:nonzero}
    .fil4 {fill:#90CEC6;fill-rule:nonzero}
    .fil2 {fill:white;fill-rule:nonzero}
   ]]>
  </style>
 </defs>
 <g id="Слой_x0020_1">
  <metadata id="CorelCorpID_0Corel-Layer"/>
  <rect class="fil0" x="-3.81" y="3.79" width="10000" height="10000"/>
  <polygon class="fil1" points="3382.76,3614.6 2989.59,3614.6 2435.29,3056.86 1917.23,3056.86 1917.23,2449.38 2096.88,2449.38 2096.88,2877.21 2510.16,2877.21 3064.2,3434.95 3382.76,3434.95 "/>
  <polygon class="fil1" points="3382.76,4285.32 2360.94,4285.32 1939.19,3798.49 2075.19,3680.75 2442.96,4105.67 3382.76,4105.67 "/>
  <polygon class="fil1" points="4249.8,2906.05 4070.15,2906.05 4070.15,2475.84 3403.13,1995.62 2007.19,1995.62 2007.19,1815.97 3461.08,1815.97 4249.8,2383.76 "/>
  <rect class="fil1" x="6610.68" y="4555.73" width="1421.34" height="179.65"/>
  <path class="fil2" d="M2124.93 3739.75c-0.12,66.82 -54.36,120.92 -121.17,120.92 -66.91,0 -121.18,-54.27 -121.18,-121.18 0,-66.91 54.27,-121.18 121.18,-121.18l-0.01 0c66.92,0 121.19,54.27 121.19,121.18l-0.01 0.26z"/>
  <path class="fil1" d="M2003.75 3891.89c-0.06,0 -0.18,0 -0.25,0 -84.15,0 -152.4,-68.25 -152.4,-152.4 0,-84.15 68.25,-152.4 152.4,-152.4 84.15,0 152.4,68.25 152.4,152.4 0,0.07 0,0.19 0,0.26 0,84.01 -68.13,152.14 -152.14,152.14l-0.01 0zm0 -242.63c-49.96,0 -90.48,40.52 -90.48,90.49 0,49.97 40.52,90.49 90.49,90.49 49.97,0 90.49,-40.52 90.49,-90.49 -0.01,-0.08 -0.01,-0.17 -0.01,-0.26 0,-49.82 -40.4,-90.22 -90.22,-90.22 -0.09,0 -0.18,0 -0.26,0l-0.01 -0.01z"/>
  <path class="fil2" d="M8145.52 4645.42c0,0.07 0,0.19 0,0.26 0,67.06 -54.38,121.44 -121.44,121.44 -67.06,0 -121.44,-54.38 -121.44,-121.44 0,-67.06 54.38,-121.44 121.44,-121.44l0 0c0,0 0,0 0,0 66.95,0 121.31,54.22 121.44,121.17l0 0.01z"/>
  <path class="fil1" d="M8024.08 4797.56c-83.92,-0.13 -151.88,-68.22 -151.88,-152.14 0,-84.01 68.13,-152.14 152.14,-152.14 84.01,0 152.14,68.13 152.14,152.14l0 0c-0.13,84.06 -68.34,152.14 -152.4,152.14 0,0 0,0 0,0zm0 -242.36c-49.97,-0.01 -90.49,40.51 -90.49,90.48 0,49.97 40.52,90.49 90.49,90.49 49.97,0 90.49,-40.52 90.49,-90.49 0,-0.08 0,-0.19 0,-0.27 -0.01,0.01 -0.01,0.01 -0.01,0.01 0,-49.82 -40.4,-90.22 -90.22,-90.22 -0.09,0 -0.18,0 -0.26,0z"/>
  <rect class="fil1" x="2007.18" y="4637.74" width="1375.57" height="179.65"/>
  <path class="fil2" d="M1882.57 4727.44c0.01,66.91 54.28,121.18 121.19,121.18 66.91,0 121.18,-54.27 121.18,-121.18 0,-66.91 -54.27,-121.18 -121.18,-121.18l-0.01 0c-66.9,0 -121.17,54.27 -121.17,121.18l-0.01 0z"/>
  <path class="fil1" d="M2003.75 4879.84c-0.06,0 -0.18,0 -0.25,0 -84.15,0 -152.4,-68.25 -152.4,-152.4 0,-84.15 68.25,-152.4 152.4,-152.4 84.15,0 152.4,68.25 152.4,152.4l-0.01 0c0.01,0 0.01,0 0.01,0 0,84.06 -68.08,152.27 -152.14,152.4l-0.01 0zm0 -242.62c-49.71,0.14 -89.95,40.5 -89.95,90.22 0,49.82 40.4,90.22 90.22,90.22 49.82,0 90.22,-40.4 90.22,-90.22 0.01,0 0.01,0 0.01,0 0,-49.68 -40.29,-89.96 -89.96,-89.96 -0.18,0 -0.35,0 -0.53,0l-0.01 -0.26z"/>
  <path class="fil2" d="M2124.93 1905.92c-0.12,66.82 -54.36,120.92 -121.17,120.92 -66.91,0 -121.18,-54.27 -121.18,-121.18 0,-66.91 54.27,-121.18 121.18,-121.18 0,0 0,0 0,0 66.91,0 121.18,54.27 121.18,121.18 0,0.07 0,0.19 0,0.27l-0.01 -0.01z"/>
  <path class="fil1" d="M2003.75 2058.06c-0.06,0 -0.18,0 -0.25,0 -84.15,0 -152.4,-68.25 -152.4,-152.4 0,-84.15 68.25,-152.4 152.4,-152.4 84.15,0 152.4,68.25 152.4,152.4l-0.01 0c0.01,0.16 0.01,0.36 0.01,0.53 0,83.86 -68.01,151.87 -151.87,151.87 -0.07,0 -0.19,0 -0.26,0l-0.02 0zm0 -242.36c-49.71,0.14 -89.95,40.5 -89.95,90.22 0,49.82 40.4,90.22 90.22,90.22 49.82,0 90.22,-40.4 90.22,-90.22 0.01,-0.08 0.01,-0.17 0.01,-0.26 0,-49.68 -40.29,-89.96 -89.96,-89.96 -0.18,0 -0.35,0 -0.53,0l-0.01 0z"/>
  <path class="fil2" d="M2124.93 2429.8c0.01,0.16 0.01,0.37 0.01,0.53 0,66.91 -54.27,121.18 -121.18,121.18 -66.91,0 -121.18,-54.27 -121.18,-121.18 0,-66.81 54.1,-121.05 120.91,-121.18l0 0c0.16,0 0.37,0 0.53,0 66.66,0 120.78,53.98 120.91,120.64l0 0.01z"/>
  <path class="fil1" d="M2003.75 2581.93c-0.06,0 -0.18,0 -0.25,0 -84.15,0 -152.4,-68.25 -152.4,-152.4 0,-84.15 68.25,-152.4 152.4,-152.4 84.15,0 152.4,68.25 152.4,152.4l-0.01 0c0.01,0.08 0.01,0.2 0.01,0.27 0,84.01 -68.13,152.14 -152.14,152.14 0,0 0,0 0,0l-0.01 -0.01zm0 -242.62c-49.96,0 -90.48,40.52 -90.48,90.49 0,49.97 40.52,90.49 90.49,90.49 49.97,0 90.49,-40.52 90.49,-90.49 -0.01,-0.09 -0.01,-0.18 -0.01,-0.27 0,-49.82 -40.4,-90.22 -90.22,-90.22 -0.09,0 -0.18,0 -0.26,0l-0.01 0z"/>
  <path class="fil2" d="M4862.84 7889.74c-0.12,66.8 -54.36,120.9 -121.17,120.9 -66.91,0 -121.18,-54.27 -121.18,-121.18 0,-66.91 54.27,-121.18 121.18,-121.18l-0.01 0.02c66.92,-0.02 121.19,54.25 121.19,121.16l-0.01 0.28z"/>
  <path class="fil1" d="M4741.39 8041.88c-84.14,-0.02 -152.39,-68.27 -152.39,-152.42 0,-84.15 68.25,-152.4 152.4,-152.4 84.15,0 152.4,68.25 152.4,152.4l-0.01 0.02c0.01,84.13 -68.24,152.38 -152.39,152.38l-0.01 0.02zm0 -242.63c-49.96,-0.02 -90.48,40.5 -90.48,90.47 0,49.97 40.52,90.49 90.49,90.49 49.97,0 90.49,-40.52 90.49,-90.49 0,-49.97 -40.52,-90.49 -90.49,-90.49l-0.01 0.02z"/>
  <path class="fil1" d="M1721.97 8174.43l-105.83 -144.73 298.71 -220.13 0 -1723.49c0.01,-0.09 0.01,-0.15 0.01,-0.22 0,-22.32 8.3,-43.85 23.28,-60.39l769.94 -844.81c16.9,-18.69 40.94,-29.37 66.14,-29.37 0.09,0 0.18,0 0.27,0l608.53 0.01 0 179.65 -569.64 0.01 -719.94 790.04 0 1734.08c0.01,0.02 0.01,0.08 0.01,0.12 0,28.46 -13.57,55.26 -36.51,72.09l-334.97 247.14z"/>
  <polygon class="fil1" points="1528.03,6630.85 1528.03,6986.45 1915.38,6986.45 1915.38,6630.85 2093.97,6630.85 2093.97,7529.11 1915.38,7529.11 1915.38,7127.48 1528.03,7127.48 1528.03,7529.11 1349.7,7529.11 1349.7,6630.85 "/>
  <path class="fil1" d="M2642.45 6516.02l351.63 1013.35 -192.61 0.01 -73.03 -233.63 -351.63 0 -73.03 233.63 -192.34 0 351.63 -1013.36 179.38 0zm-221.72 638.44l264.59 0 -120.65 -390.26 -23.02 0 -120.92 390.26z"/>
  <path class="fil1" d="M3800.54 7192.83c-4.18,96.16 -44.48,187.36 -112.73,255.28 -72.78,66.96 -168.21,104.17 -267.15,104.17 -3.81,0 -7.66,-0.05 -11.42,-0.14 -4.82,0.11 -9.88,0.25 -14.74,0.25 -116.24,0 -226.52,-51.87 -300.66,-141.32 -84.67,-101.6 -103.98,-225.95 -103.98,-330.99 0,-105.04 19.31,-228.6 103.98,-330.99 65.35,-79.38 164.04,-141.29 315.38,-141.29 4.91,-0.18 9.9,-0.27 14.85,-0.27 97.96,0 192.34,37.3 263.78,104.27 67.28,65.84 105.48,156.06 105.82,250.27l-185.22 0.04c0.06,-2.37 0.12,-4.84 0.12,-7.22 0,-53.61 -18.79,-105.56 -53.02,-146.78 -34.62,-37.87 -83.61,-59.45 -134.93,-59.45 -4.24,0 -8.5,0.16 -12.72,0.45 -2.12,-0.06 -4.31,-0.11 -6.46,-0.11 -74.92,0 -144.03,40.57 -180.58,105.94 -12.96,23.02 -46.3,87.05 -46.3,221.46 0,52.92 5.29,150.28 46.3,221.72 39.55,65.92 110.89,106.31 187.81,106.31 55.5,0 108.96,-21.08 149.51,-58.95 36.81,-41.17 57.19,-94.51 57.19,-149.74 0,-1.23 -0.03,-2.52 -0.03,-3.73l185.2 0.82z"/>
  <path class="fil1" d="M5176.37 6516.02l351.37 1012.03 -192.62 0.01 -73.03 -233.63 -350.3 0 -73.03 233.63 -191.56 0 350.05 -1012.04 179.12 0zm-222.25 637.39l264.58 0 -120.65 -390.26 -23.02 -0.01 -120.91 390.27z"/>
  <polygon class="fil1" points="6090.24,6630.85 6090.24,6769.49 5882.01,6769.49 5882.01,8095.59 5702.36,8095.59 5702.36,6769.49 5496.78,6769.49 5496.78,6630.85 "/>
  <polygon class="fil1" points="6385.25,6630.85 6385.25,6986.45 6772.86,6986.45 6772.86,6630.85 6950.93,6630.85 6950.93,7529.11 6772.86,7529.11 6772.86,7127.48 6385.25,7127.48 6385.25,7529.11 6206.92,7529.11 6206.92,6630.85 "/>
  <path class="fil1" d="M7117.88 6743.83c80.46,-86.73 193.49,-136.02 311.81,-136.02 118.32,0 231.35,49.29 311.8,135.98 96.04,109.01 111.39,241.3 111.39,336.29 0,94.99 -15.35,227.01 -111.39,336.02 -80.45,86.73 -193.48,136.02 -311.8,136.02 -118.32,0 -231.35,-49.29 -311.8,-135.98 -96.04,-109.01 -111.65,-241.3 -111.65,-336.02 0,-94.72 15.6,-227.28 111.64,-336.29zm124.09 560.65l0 0c41.35,63.21 111.8,101.3 187.33,101.3 75.53,0 145.98,-38.09 187.33,-101.3 42.33,-65.35 50.01,-148.7 50.01,-225.69 0,-76.99 -8.73,-158.75 -50.01,-225.95 -40.36,-64.56 -111.19,-103.83 -187.33,-103.83 -76.14,0 -146.97,39.27 -187.32,103.82 -41.01,66.68 -50.01,147.64 -50.01,225.95 0,78.31 7.94,160.34 50.54,225.69l-0.54 0.01z"/>
  <path class="fil1" d="M7908.19 7042.81c0,-111.39 0,-229.66 96.31,-329.67 67.77,-66.03 158.71,-103.04 253.33,-103.04 5.32,0 10.73,0.13 16,0.35 112.98,1.32 209.29,39.69 269.35,102.66 96.57,98.69 96.57,219.34 96.57,330.99l0 1122.1 -182.55 0.03 0 -1137.71c0,-65.62 1.32,-138.64 -28.05,-189.97 -31.11,-51.82 -87.17,-83.53 -147.63,-83.53 -2.54,0 -5.15,0.06 -7.68,0.17 -2.67,-0.12 -5.44,-0.2 -8.14,-0.2 -59.98,0 -115.51,31.81 -145.85,83.53 -30.69,52.92 -29.37,121.97 -29.37,189.97l0 500.33 -182.29 0.03 0 -486.04z"/>
  <path class="fil2" d="M1560.31 6630.85c0,0.06 0,0.18 0,0.25 0,67.06 -54.38,121.44 -121.44,121.44 -67.06,0 -121.44,-54.38 -121.44,-121.44 0,-67.06 54.38,-121.44 121.44,-121.44l-0.01 0.01c0.01,-0.01 0.01,-0.01 0.01,-0.01 66.95,0 121.31,54.22 121.44,121.17l0 0.02z"/>
  <path class="fil1" d="M1438.86 6783.25c-84.04,-0.15 -152.12,-68.36 -152.12,-152.42 0,-84.15 68.25,-152.4 152.4,-152.4 84.15,0 152.4,68.25 152.4,152.4 0,0.08 0,0.2 0,0.27 0,84.01 -68.13,152.14 -152.14,152.14 -0.17,0 -0.37,0 -0.54,0l0 0.01zm0 -242.62c-49.85,0.12 -90.21,40.6 -90.21,90.47 0,49.97 40.52,90.49 90.49,90.49 49.97,0 90.49,-40.52 90.49,-90.49 0,-0.08 0,-0.19 0,-0.27 -0.01,0 -0.01,0 -0.01,0 0,-49.82 -40.4,-90.22 -90.22,-90.22 -0.18,0 -0.35,0 -0.53,0l-0.01 0.02z"/>
  <path class="fil2" d="M1802.67 8103.52c-0.12,66.8 -54.36,120.9 -121.17,120.9 -66.91,0 -121.18,-54.27 -121.18,-121.18 0,-66.91 54.27,-121.18 121.18,-121.18 0,0 0,0 0,0 66.91,0 121.18,54.27 121.18,121.18 0,0.07 0,0.19 0,0.27l-0.01 0.01z"/>
  <path class="fil1" d="M1681.49 8254.34c-0.07,-0.02 -0.19,-0.02 -0.26,-0.02 -84.15,0 -152.4,-68.25 -152.4,-152.4 0,-84.15 68.25,-152.4 152.4,-152.4 84.15,0 152.4,68.25 152.4,152.4l-0.01 0.02c0.02,0.05 0.02,0.17 0.02,0.24 0,84.01 -68.13,152.14 -152.14,152.14 0,0 0,0 0,0l-0.01 0.02zm0 -242.63c-49.96,-0.02 -90.47,40.5 -90.47,90.47 0,49.97 40.52,90.49 90.49,90.49 49.46,0 89.76,-39.72 90.48,-89.16 0,-49.98 -40.52,-90.5 -90.49,-90.5l-0.01 -1.3z"/>
  <path class="fil2" d="M8674.69 8103.52c0,67.04 -54.38,121.42 -121.44,121.42 -67.06,0 -121.44,-54.38 -121.44,-121.44 0,-67.06 54.38,-121.44 121.44,-121.44l0 0.02c67,0.11 121.31,54.42 121.44,121.42l0 0.02z"/>
  <path class="fil1" d="M8553.25 8254.34c-84.15,-0.02 -152.4,-68.27 -152.4,-152.42 0,-84.15 68.25,-152.4 152.4,-152.4 84.15,0 152.4,68.25 152.4,152.4l0 0.02c-0.14,84.06 -68.32,152.24 -152.41,152.37l0.01 0.03zm0 -242.63c-49.97,-0.02 -90.49,40.5 -90.49,90.47 0,49.97 40.52,90.49 90.49,90.49 49.97,0 90.49,-40.52 90.49,-90.49 0,-49.97 -40.52,-90.49 -90.49,-90.49l0 0.02z"/>
  <path class="fil1" d="M2644.04 6588.52l-182.56 0 0 -493.45c0.01,-0.19 0.01,-0.36 0.01,-0.53 0,-24.01 9.52,-47.04 26.46,-64.05l283.36 -281.76c16.88,-16.96 39.82,-26.48 63.73,-26.48 0.19,0 0.38,0 0.57,0l546.88 0.02 0 182.3 -508 0 -229.66 229.66 -0.79 454.29z"/>
  <rect class="fil3" x="5004.13" y="6156.46" width="166.42" height="515.14"/>
  <rect class="fil1" x="4996.19" y="6156.46" width="182.56" height="515.14"/>
  <rect class="fil1" x="5496.52" y="6156.46" width="166.42" height="515.14"/>
  <rect class="fil1" x="2801.74" y="7528.59" width="192.09" height="354.01"/>
  <path class="fil2" d="M3018.96 7889.74c0,67.04 -54.38,121.42 -121.44,121.42 -67.06,0 -121.44,-54.38 -121.44,-121.44 0,-67.06 54.38,-121.44 121.44,-121.44 0.07,0 0.19,0 0.27,0l-0.01 0.02c66.92,-0.02 121.19,54.25 121.19,121.16l-0.01 0.28z"/>
  <path class="fil1" d="M2898.04 8041.88c-0.06,-0.02 -0.18,-0.02 -0.25,-0.02 -84.15,0 -152.4,-68.25 -152.4,-152.4 0,-84.15 68.25,-152.4 152.4,-152.4 84.15,0 152.4,68.25 152.4,152.4l-0.01 0.02c0.01,0.05 0.01,0.17 0.01,0.24 0,84.01 -68.13,152.14 -152.14,152.14 0,0 0,0 0,0l-0.01 0.02zm0 -242.63c-0.06,-0.02 -0.17,-0.02 -0.25,-0.02 -49.97,0 -90.49,40.52 -90.49,90.49 0,49.97 40.52,90.49 90.49,90.49 49.97,0 90.49,-40.52 90.49,-90.49 -0.01,-0.08 -0.01,-0.17 -0.01,-0.26 0,-49.82 -40.4,-90.22 -90.22,-90.22 0,0 0,0 0,0l-0.01 0.01z"/>
  <polygon class="fil1" points="4345.58,7051.81 4614.13,6630.85 4614.13,6156.46 4442.41,6156.46 4442.41,6630.85 4442.41,6630.85 4213.55,6988.83 4067.76,6988.83 4067.76,6630.85 3889.44,6630.85 3889.44,7529.11 4067.76,7529.11 4067.76,7124.83 4206.41,7124.83 4418.07,7529.11 4607.25,7529.11 "/>
  <polygon class="fil1" points="4838.5,7785.49 4838.5,7529.11 4646.41,7529.11 4646.41,7785.49 4646.41,7785.49 "/>
  <path class="fil2" d="M5793.91 8223.38c67.06,-0.02 121.44,-54.4 121.44,-121.46 0,-67.06 -54.38,-121.44 -121.44,-121.44 -67.06,0 -121.44,54.38 -121.44,121.44l-0.01 0.02c0.01,67.04 54.39,121.42 121.45,121.42l0 0.02z"/>
  <path class="fil1" d="M5793.91 8254.34c-0.08,-0.02 -0.2,-0.02 -0.27,-0.02 -84.15,0 -152.4,-68.25 -152.4,-152.4 0,-84.15 68.25,-152.4 152.4,-152.4 84.15,0 152.4,68.25 152.4,152.4l0 0.02c0,-0.02 0,-0.02 0,-0.02 0,84.06 -68.08,152.27 -152.14,152.4l0.01 0.02zm0 -242.63c-0.08,-0.02 -0.19,-0.02 -0.27,-0.02 -49.97,0 -90.49,40.52 -90.49,90.49 0,49.97 40.52,90.49 90.49,90.49 49.97,0 90.49,-40.52 90.49,-90.49 0,0 0,0 0,0 0,-49.87 -40.36,-90.35 -90.22,-90.49l0 0.02z"/>
  <path class="fil1" d="M7369.76 8175.76l-551.13 -308.24c-28.4,-15.85 -46.03,-45.85 -46.03,-78.38 0,-0.34 0.01,-0.69 0.01,-1.02l-0.01 -266.68 178.86 0 0 215.64 505.35 282.58 -87.05 156.1z"/>
  <path class="fil2" d="M7395.43 8223.38c0.07,-0.02 0.19,-0.02 0.26,-0.02 67.06,0 121.44,-54.38 121.44,-121.44 0,-67.06 -54.38,-121.44 -121.44,-121.44 -67.06,0 -121.44,54.38 -121.44,121.44l0 0.02c0,-0.02 0,-0.02 0,-0.02 0,66.95 54.22,121.31 121.17,121.44l0.01 0.02z"/>
  <path class="fil1" d="M7395.43 8254.34c-84.15,-0.02 -152.4,-68.27 -152.4,-152.42 0,-84.15 68.25,-152.4 152.4,-152.4 84.15,0 152.4,68.25 152.4,152.4 0,0.07 0,0.19 0,0.26l0 0.02c-0.13,84.04 -68.34,152.12 -152.4,152.12 0,0 0,0 0,0l0 0.02zm0 -242.63c-49.97,-0.02 -90.49,40.5 -90.49,90.47 0,49.97 40.52,90.49 90.49,90.49 49.97,0 90.49,-40.52 90.49,-90.49 0,-49.97 -40.52,-90.49 -90.49,-90.49l0 0.02z"/>
  <path class="fil1" d="M6200.31 6156.46l-163.52 0 158.75 158.75c6.58,5.66 10.59,13.79 11.11,22.47l0 292.63 177.28 0.01 0 -295.27c0,-0.04 0,-0.07 0,-0.09 0,-6.93 -3.23,-13.46 -8.73,-17.67l-174.89 -160.83z"/>
  <path class="fil1" d="M5012.59 2906.05l-180.18 0 0 -459.58 -195.79 -507.74 167.48 -64.82 202.67 524.14c3.84,10.13 5.82,20.9 5.82,31.74 0,0.17 0,0.36 0,0.53l0 475.73z"/>
  <path class="fil2" d="M4841.67 1905.92c0.01,67.06 -54.37,121.44 -121.43,121.44 -67.06,0 -121.44,-54.38 -121.44,-121.44 0,-67.06 54.38,-121.44 121.44,-121.44 0.07,0 0.19,0 0.27,0 -0.01,0 -0.01,0 -0.01,0 66.91,0 121.18,54.27 121.18,121.18 0,0.07 0,0.19 0,0.27l-0.01 -0.01z"/>
  <path class="fil1" d="M4720.49 2058.06c-0.06,0 -0.18,0 -0.25,0 -84.15,0 -152.4,-68.25 -152.4,-152.4 0,-84.15 68.25,-152.4 152.4,-152.4 84.15,0 152.4,68.25 152.4,152.4 0,0.07 0,0.19 0,0.26l-0.01 0c0.01,84.01 -68.12,152.14 -152.13,152.14l-0.01 0zm0 -242.36c-49.81,0 -90.21,40.4 -90.21,90.22 0,49.82 40.4,90.22 90.22,90.22 49.82,0 90.22,-40.4 90.22,-90.22 0,-49.82 -40.4,-90.22 -90.22,-90.22l-0.01 0z"/>
  <path class="fil1" d="M5664.26 2906.05l-179.65 0 0 -476.25c0,0 0,0 0,0 0,-49.58 40.12,-89.82 89.7,-89.96l1404.93 0 0 -433.92 179.92 0 0 523.88c-0.14,49.57 -40.38,89.69 -89.96,89.69 0,0 0,0 0,0l-1404.94 0 0 386.56z"/>
  <path class="fil2" d="M7190.38 1905.92c-0.01,67.06 -54.39,121.44 -121.45,121.44 -67.06,0 -121.44,-54.38 -121.44,-121.44 0,-67.06 54.38,-121.44 121.44,-121.44 67.06,0 121.44,54.38 121.44,121.44l0.01 0z"/>
  <path class="fil1" d="M7068.93 2058.06c-0.07,0 -0.19,0 -0.26,0 -84.15,0 -152.4,-68.25 -152.4,-152.4 0,-84.15 68.25,-152.4 152.4,-152.4 84.15,0 152.4,68.25 152.4,152.4l0 0c0,0.07 0,0.19 0,0.26 0,84.01 -68.13,152.14 -152.14,152.14 0,0 0,0 0,0zm0 -242.36c-49.82,0 -90.22,40.4 -90.22,90.22 0,49.82 40.4,90.22 90.22,90.22 49.72,0 90.08,-40.24 90.22,-89.96l0.01 0.01c-0.01,-0.09 -0.01,-0.18 -0.01,-0.27 0,-49.82 -40.4,-90.22 -90.22,-90.22 0,0 0,0 0,0z"/>
  <path class="fil1" d="M7380.08 3572.8l-769.4 0 0 -178.86 679.45 0 0 -589.23c-0.01,-49.68 40.27,-89.96 89.95,-89.96l555.63 0.01 0 -808.84 179.92 0 0 899.58c-0.14,49.58 -40.38,89.7 -89.96,89.7 0,0 0,0 0,0l-555.63 0 0 587.64c0,49.68 -40.28,89.96 -89.96,89.96z"/>
  <path class="fil2" d="M8145.52 1905.92c0,67.06 -54.38,121.44 -121.44,121.44 -67.06,0 -121.44,-54.38 -121.44,-121.44 0,-67.06 54.38,-121.44 121.44,-121.44 67.06,0 121.44,54.38 121.44,121.44z"/>
  <path class="fil1" d="M8024.08 2058.06c-84.15,0 -152.4,-68.25 -152.4,-152.4 0,-84.15 68.25,-152.4 152.4,-152.4 84.15,0 152.4,68.25 152.4,152.4l0 0c0,84.15 -68.25,152.4 -152.4,152.4zm0 -242.36c-49.72,0.14 -89.96,40.5 -89.96,90.22 0,49.82 40.4,90.22 90.22,90.22 49.82,0 90.22,-40.4 90.22,-90.22 0,0 0,0 0,0 0,-49.82 -40.4,-90.22 -90.22,-90.22 -0.09,0 -0.18,0 -0.26,0z"/>
  <path class="fil1" d="M7973.81 5624.38l-363.27 -306.92 -999.86 0 0 -179.65 1033.72 0c21.23,0.03 41.79,7.64 57.94,21.41l387.61 328.08 -116.14 137.08z"/>
  <path class="fil1" d="M7273.72 6198.52l-326.23 -295.54 -340.25 0 0 -180.71 374.65 0c0.01,-0.01 0.02,-0.01 0.03,-0.01 22.28,0 43.8,8.31 60.29,23.28l351.9 317.5 -120.39 135.48z"/>
  <path class="fil2" d="M7901.58 5556.12c0,-67.08 54.38,-121.46 121.44,-121.46 67.06,0 121.44,54.38 121.44,121.44 0,67.06 -54.38,121.44 -121.44,121.44 -67,-0.13 -121.31,-54.44 -121.44,-121.44l0 0.02z"/>
  <path class="fil1" d="M8024.08 5708.25c-83.92,-0.14 -151.88,-68.23 -151.88,-152.15 0,-84.01 68.13,-152.14 152.14,-152.14 84.01,0 152.14,68.13 152.14,152.14l0 0.02c-0.13,84.03 -68.34,152.11 -152.4,152.11 0,0 0,0 0,0l0 0.02zm0 -242.36c-49.72,0.13 -89.96,40.49 -89.96,90.21 0,49.82 40.4,90.22 90.22,90.22 49.82,0 90.22,-40.4 90.22,-90.22 0,0 0,0 0,0 0,-49.82 -40.4,-90.22 -90.22,-90.22 -0.09,0 -0.18,0 -0.26,0l0 0.01z"/>
  <path class="fil1" d="M7644.4 4166.79l-1033.72 0 0 -179.65 999.86 0 362.48 -307.18 116.94 137.31 -387.61 328.08c-16.03,13.83 -36.53,21.44 -57.7,21.44 -0.08,0 -0.17,0 -0.25,0z"/>
  <path class="fil2" d="M7901.58 3748.48c0,0.08 0,0.2 0,0.27 0,67.06 54.38,121.44 121.44,121.44 67.06,0 121.44,-54.38 121.44,-121.44 0,-66.95 -54.22,-121.31 -121.17,-121.44l0 -0.01c-0.08,0.01 -0.2,0.01 -0.27,0.01 -66.95,0 -121.31,54.22 -121.44,121.17z"/>
  <path class="fil1" d="M8024.08 3900.88c-84.15,0 -152.4,-68.25 -152.4,-152.4 0,-84.15 68.25,-152.4 152.4,-152.4 84.15,0 152.4,68.25 152.4,152.4l0 0c-0.14,84.09 -68.32,152.27 -152.41,152.4l0.01 0zm0 -242.62c-49.97,0 -90.49,40.52 -90.49,90.49 0,49.97 40.52,90.49 90.49,90.49 49.97,0 90.49,-40.52 90.49,-90.49 0,-0.08 0,-0.19 0,-0.27 -0.15,-49.71 -40.51,-89.95 -90.23,-89.95 -0.09,0 -0.18,0 -0.26,0l0 -0.27z"/>
  <path class="fil2" d="M7443.85 6130.53c-0.01,67.04 -54.39,121.42 -121.45,121.42 -67.06,0 -121.44,-54.38 -121.44,-121.44 0,-67.06 54.38,-121.44 121.44,-121.44l0 0.01c0.08,-0.02 0.2,-0.02 0.27,-0.02 66.91,0 121.18,54.27 121.18,121.18 0,0.07 0,0.19 0,0.27l0 0.02z"/>
  <path class="fil1" d="M7322.4 6282.66c-84.15,-0.02 -152.4,-68.27 -152.4,-152.42 0,-84.15 68.25,-152.4 152.4,-152.4 84.15,0 152.4,68.25 152.4,152.4 0,0.07 0,0.19 0,0.26l0 0.03c-0.13,84.03 -68.34,152.11 -152.4,152.11 0,0 0,0 0,0l0 0.02zm0 -242.62c-49.97,-0.02 -90.49,40.5 -90.49,90.47 0,49.97 40.52,90.49 90.49,90.49 49.97,0 90.49,-40.52 90.49,-90.49l0 0.02c0,-0.02 0,-0.02 0,-0.02 0,-50.01 -40.47,-90.61 -90.48,-90.75l-0.01 0.28z"/>
  <path class="fil1" d="M6407.48 6095.07l-2814.91 0c-0.06,-0.02 -0.17,-0.02 -0.25,-0.02 -86.39,0 -156.5,-69.97 -156.63,-156.36l-0.01 0.01 0 -2815.16c0.01,-86.49 70.15,-156.63 156.64,-156.63l2815.16 -0.01c86.49,0.01 156.63,70.15 156.63,156.64l0 2814.9c0,86.47 -70.14,156.61 -156.63,156.61l0 0.02z"/>
  <path class="fil4" d="M6133.1 5891.34l-2266.15 0c0.01,-0.02 0.01,-0.02 0.01,-0.02 -86.35,0 -156.37,-70.02 -156.37,-156.37 0,-0.08 0,-0.19 0,-0.27l0 -2407.71c0,0.03 0,0.03 0,0.03 0,-86.39 69.97,-156.5 156.36,-156.63l2266.15 0c86.4,0.13 156.37,70.24 156.37,156.63 0,0 0,0 0,0l0 2407.71c0,0.05 0,0.16 0,0.24 0,86.35 -70.02,156.37 -156.37,156.37 0,0 0,0 0,0l0 0.02z"/>
  <path class="fil5" d="M6133.1 5928.38l-2266.15 0c0.01,-0.02 0.01,-0.02 0.01,-0.02 -106.8,0 -193.41,-86.61 -193.41,-193.41 0,-0.07 0,-0.19 0,-0.26l0 -2407.71c0.13,-106.76 86.62,-193.38 193.41,-193.66l2266.14 0.01c106.78,0.27 193.27,86.89 193.41,193.67l0 2407.71c0,0.05 0,0.17 0,0.24 0,106.8 -86.61,193.41 -193.41,193.41 0,0 0,0 0,0l0 0.02zm-2266.15 -2719.65c0,0 0,0 0,0 -65.59,0 -118.91,52.96 -119.33,118.54l0 2407.71c0.01,0.07 0.01,0.15 0.01,0.24 0,65.89 53.44,119.33 119.33,119.33 0,0 0,0 0,0l2266.14 0.02c0,-0.02 0,-0.02 0,-0.02 65.89,0 119.33,-53.44 119.33,-119.33 0,-0.09 0,-0.17 0,-0.26l0 -2407.71c-0.42,-65.56 -53.74,-118.52 -119.33,-118.52 0,0 0,0 0,0l-2266.15 0z"/>
  <path class="fil2" d="M5807.66 3069.56c0,27.17 -22.04,49.21 -49.21,49.21 -27.17,0 -49.21,-22.04 -49.21,-49.21 0,-27.17 22.04,-49.21 49.21,-49.21l0 0c27.17,0 49.21,22.04 49.21,49.21z"/>
  <path class="fil2" d="M5649.44 3069.56c0.01,0.09 0.01,0.19 0.01,0.27 0,27.32 -22.16,49.48 -49.48,49.48 -27.32,0 -49.48,-22.16 -49.48,-49.48 0,-27.22 21.99,-49.34 49.21,-49.48l0 0c0.09,0 0.19,0 0.27,0 27.22,0 49.34,21.99 49.48,49.21l-0.01 0z"/>
  <path class="fil2" d="M3618.24 3688.69c0.01,27.17 -22.03,49.21 -49.2,49.21 -27.17,0 -49.21,-22.04 -49.21,-49.21 0,-27.17 22.04,-49.21 49.21,-49.21l-0.01 -0.01c0.09,0 0.19,0 0.27,0 27.03,0 48.95,21.92 48.95,48.95 0,0 0,0 0,0l-0.01 0.27z"/>
  <path class="fil2" d="M3618.24 3847.97c0.01,27.17 -22.03,49.21 -49.2,49.21 -27.17,0 -49.21,-22.04 -49.21,-49.21 0,-27.17 22.04,-49.21 49.21,-49.21l-0.01 -0.01c27.18,0.01 49.22,22.05 49.22,49.22l-0.01 0z"/>
  <path class="fil2" d="M3618.24 4007.24c0.01,27.17 -22.03,49.21 -49.2,49.21 -27.17,0 -49.21,-22.04 -49.21,-49.21 0,-27.17 22.04,-49.21 49.21,-49.21l-0.01 0c27.18,0 49.22,22.04 49.22,49.21l-0.01 0z"/>
  <path class="fil2" d="M3618.24 4166.52c0.01,27.17 -22.03,49.21 -49.2,49.21 -27.17,0 -49.21,-22.04 -49.21,-49.21 0,-27.17 22.04,-49.21 49.21,-49.21l-0.01 0c27.18,0 49.22,22.04 49.22,49.21l-0.01 0z"/>
  <path class="fil2" d="M3618.24 4325.8c0.01,27.17 -22.03,49.21 -49.2,49.21 -27.17,0 -49.21,-22.04 -49.21,-49.21 0,-27.17 22.04,-49.21 49.21,-49.21l-0.01 0c27.18,0 49.22,22.04 49.22,49.21l-0.01 0z"/>
  <path class="fil2" d="M3618.24 4485.08c0.01,27.17 -22.03,49.21 -49.2,49.21 -27.17,0 -49.21,-22.04 -49.21,-49.21 0,-27.17 22.04,-49.21 49.21,-49.21l-0.01 0c27.18,0 49.22,22.04 49.22,49.21l-0.01 0z"/>
 </g>
</svg>
