<svg
  version="1.1"
  viewBox="0 1213 5333.3335 2733"
  xmlns="http://www.w3.org/2000/svg"
>
  <g
    id="g8"
    transform="matrix(1.3333333,0,0,-1.3333333,0,5333.3333)"
  >
    <g id="g10" transform="scale(0.1)">
      <path
        d="m 21234.3,10734.4 c -1381.2,0 -2718.4,19.8 -3987.8,57.1 448.7,23.1 868.1,82.3 1246.2,158.7 622.4,125.8 1178.5,304.2 1640.4,484.2 h 8989.1 c 410.7,0 783.9,191.3 1024.1,524.9 50.3,69.9 92.7,143.2 127.2,219.2 h 4489 c 362.4,0 700.8,178.5 905.2,477.5 10.4,15.1 20.4,30.6 29.9,46.1 295.5,-124 452.4,-253.9 452.4,-387.7 0,-872.6 -6678,-1580 -14915.7,-1580 m -5328.4,103.8 c -2895.7,117.3 -5357.9,327.5 -7061.81,596.2 h 4981.01 c 706.6,-329.3 1410.3,-512.4 2080.8,-596.2"
        style="fill: #1f2937; fill-opacity: 1; fill-rule: nonzero; stroke: none"
        id="path14"
      />
      <path
        d="M 34762.6,12353.8 H 20127.9 l -1784.2,4370 c 0,0 2683.3,2721.8 6461.1,2944.6 264.4,15.8 534.2,19.3 808.5,8.4 634.6,-24.2 1295.1,-123.7 1974.3,-320.3 241.6,-69.8 485.2,-152 731.2,-247.5 552,-213.4 1114.9,-494.6 1684.7,-853 182.2,-114.9 364.9,-237.1 548.5,-368.8 320.4,-228.3 643.1,-482.7 966.9,-764.4 584.2,-508 1172.3,-1105 1761.4,-1803 137.7,-162.9 328.8,-269.4 539.2,-300.6 175.2,-26.2 407.4,-79.6 651.5,-188.1 426.2,-189.1 889.1,-545 1150.5,-1216.3 235.7,-606.5 -208.4,-1261 -858.9,-1261"
        style="fill: #726789; fill-opacity: 1; fill-rule: nonzero; stroke: none"
        id="path16"
      />
      <path
        d="m 34762.6,12353.8 h -4771.5 c -231.2,2810 670.8,4140.3 1527.8,4769 584.2,-508 1172.3,-1105 1761.4,-1803 137.7,-162.9 328.8,-269.4 539.2,-300.6 480.7,-72.2 1390.6,-348.5 1802,-1404.4 235.7,-606.5 -208.4,-1261 -858.9,-1261"
        style="fill: #ffffff; fill-opacity: 1; fill-rule: nonzero; stroke: none"
        id="path18"
      />
      <path
        d="m 25573.7,18855 c -18.4,-140.6 -39.6,-280.7 -70.8,-419.8 -31.2,-139.6 -64.9,-278.2 -115.9,-413.4 -51,-134.6 -111.4,-266.8 -189.6,-389.6 -78.2,-122.8 -170.3,-237.6 -282.7,-331.7 -10.4,-8.9 -25.7,-7.4 -34.6,3 -4,4.9 -6,11.4 -5.5,17.3 v 1 c 9.4,143.6 18.8,276.7 24.3,407.9 6.4,130.7 8.4,259.4 10.9,386.2 2.9,127.2 3.9,254 2,380.2 -2.5,126.2 -9.9,253.5 -18.8,379.7 -18.4,253.5 -49.1,506.5 -83.2,758.9 -1.5,11.4 -3,22.3 -5,33.7 264.4,15.8 534.2,19.3 808.5,8.4 7.4,-273.3 -5.5,-548 -39.6,-821.8"
        style="fill: #504563; fill-opacity: 1; fill-rule: nonzero; stroke: none"
        id="path20"
      />
      <path
        d="m 28318.8,19109 c -20.3,-105.5 -43.6,-210.9 -69.8,-315.9 -35.2,-137.1 -73.8,-273.7 -121.8,-408.4 -47.5,-134.2 -98.5,-267.8 -165.3,-395.6 -67.4,-127.7 -143.1,-251 -235.7,-363.8 -93.1,-111.9 -198,-214.9 -321.3,-294.6 -11.4,-7.4 -26.7,-4 -34.1,7.4 -3.5,5.5 -4.5,11.9 -3.5,17.9 l 0.5,1 c 27.2,141.5 52.4,272.7 74.2,401.9 22.3,129.3 40.1,256.5 58,382.2 18.3,125.3 34.6,251 48,376.8 13.4,125.7 21.8,252.5 28.2,379.2 7.9,153 10.9,305.9 11.4,459.4 241.6,-69.8 485.2,-152 731.2,-247.5"
        style="fill: #504563; fill-opacity: 1; fill-rule: nonzero; stroke: none"
        id="path22"
      />
      <path
        d="m 30552,17887.2 c -17.8,-36.2 -36.1,-72.3 -55.4,-108.5 -66.8,-125.7 -136.2,-250.5 -221.3,-367.3 -84.7,-116.8 -177.7,-227.7 -285.7,-325.7 -108.4,-97.1 -227.2,-183.7 -360.9,-244.6 -12.3,-5.5 -26.7,0 -32.6,12.4 -2.5,5.9 -3,12.3 -1,18.3 l 0.5,0.5 c 47.5,136.1 91.6,261.9 132.1,387.1 40.6,124.3 76.8,247.6 112.9,369.3 36.2,121.8 70.8,243.6 102.5,365.9 22.3,86.6 42.1,173.8 60.4,261.4 182.2,-114.9 364.9,-237.1 548.5,-368.8"
        style="fill: #504563; fill-opacity: 1; fill-rule: nonzero; stroke: none"
        id="path24"
      />
      <path
        d="m 27023.6,14521 c -209.6,68.3 -1048.9,323.8 -2529,557.3 -36.5,29.6 -70.4,58.9 -101.5,87.2 528.1,163.3 988.9,234.1 1394.8,234.1 864.9,0 1480.4,-321.2 1968.3,-752.8 -231.3,-21.1 -475.6,-63 -732.6,-125.8"
        style="fill: #504882; fill-opacity: 1; fill-rule: nonzero; stroke: none"
        id="path26"
      />
      <path
        d="m 34762.5,12528.9 h -4388.7 c 18.7,142.9 12.2,289.3 -20.4,433.7 117.9,-13.7 237.1,-20.6 357.2,-20.6 H 34815 c 264.4,204.1 395,413.7 430.2,620.8 85.9,-129.8 163,-276.8 227.8,-443.1 4.4,-11.4 8.6,-22.9 12.6,-34.4 -21.7,-80.9 -57.6,-159.1 -107.1,-231.5 -141.2,-206.5 -365.7,-324.9 -616,-324.9"
        style="fill: #b2b2d4; fill-opacity: 1; fill-rule: nonzero; stroke: none"
        id="path28"
      />
      <path
        d="m 31155.2,16811 c -251.6,209.9 -502.4,403.5 -751.7,581.1 -31.5,22.6 -63,45 -94.5,67 59.7,87.6 111.8,178.9 161.7,271.3 305.4,-219.1 607.8,-458.1 907.3,-717.3 -74.7,-61.6 -149.2,-128.7 -222.8,-202.1 m -1279.7,937 c -6.8,4.3 -13.7,8.6 -20.5,12.9 -560.5,352.6 -1114.3,630.4 -1657.6,842.5 18.3,63 35.3,126.3 51.6,189.7 11.8,47.4 23.1,94.9 33.7,142.5 568.7,-222.6 1129,-509.8 1680.2,-861.4 -6.4,-26.6 -13,-53.1 -19.8,-79.6 -21.3,-82.4 -44,-164.5 -67.6,-246.6 m -4227.4,1070.5 c -26.2,0 -52.6,0.3 -79.2,0.7 1.6,11.9 3.2,23.9 4.8,35.8 26.8,215.3 40.5,431.2 41.5,646.5 666.3,-26.5 1323.5,-135.6 1970.5,-326.7 -1.7,-92.7 -4.7,-185.2 -9.5,-277.7 -1.3,-25.1 -2.6,-50.2 -4.1,-75.3 -44.4,13.6 -88.7,26.9 -133,39.7 -180.6,52.2 -359.6,96.8 -537.3,135.5 -21.2,4.7 -42.7,6.9 -64.1,6.9 -42.3,0 -84.3,-8.8 -123.7,-25.5 -230.6,-98 -618.6,-159.9 -1065.9,-159.9 m -755.4,60.4 c -175.1,29.6 -329.6,69 -454.2,115 69.8,164.2 133.7,326.4 191.9,486.2 65.8,5.5 131.5,10.1 198,14 26.4,-204.8 49.4,-409.9 64.3,-615.2"
        style="fill: #b9b3c4; fill-opacity: 1; fill-rule: nonzero; stroke: none"
        id="path30"
      />
      <path
        d="m 35245.2,13562.8 c -260.7,394.4 -602.1,631 -922.7,773.3 -244.1,108.4 -476.3,161.9 -651.6,188.1 -210.4,31.2 -401.4,137.6 -539.1,300.5 -589.1,698 -1177.2,1295.1 -1761.4,1803 -71.8,62.5 -143.5,123.5 -215.2,183.3 73.6,73.4 148.1,140.5 222.8,202.1 602.3,-521.3 1192.3,-1123.8 1768.7,-1806.5 164.4,-194.7 394.2,-322.8 647,-360.7 353.3,-53 923.3,-218.4 1339.2,-729.2 97.3,-178.5 144.4,-365.1 112.3,-553.9"
        style="fill: #ffffff; fill-opacity: 1; fill-rule: nonzero; stroke: none"
        id="path32"
      />
      <path
        d="m 25568.9,18819.2 c -19.3,0.3 -38.9,0.7 -58.4,1.3 -222,6.2 -431.6,26.8 -617.8,58.4 -14.9,205.3 -37.9,410.4 -64.3,615.2 154.7,9 311.4,13.7 469.6,13.7 101.9,0 204.8,-2 308,-6 3.2,-0.1 6.1,-0.2 9.2,-0.3 -1,-215.3 -14.7,-431.2 -41.5,-646.5 -1.6,-11.9 -3.2,-23.9 -4.8,-35.8"
        style="fill: #a8a2b1; fill-opacity: 1; fill-rule: nonzero; stroke: none"
        id="path34"
      />
      <path
        d="m 28197.4,18603.4 c -9,3.5 -18.1,7 -27.1,10.5 -201,78.1 -400.3,147.2 -598.2,207.9 1.5,25.1 2.8,50.2 4.1,75.3 4.8,92.5 7.8,185 9.5,277.7 233.7,-69.1 466,-148.8 697,-239.2 -10.6,-47.6 -21.9,-95.1 -33.7,-142.5 -16.3,-63.4 -33.3,-126.7 -51.6,-189.7"
        style="fill: #a8a2b1; fill-opacity: 1; fill-rule: nonzero; stroke: none"
        id="path36"
      />
      <path
        d="m 30309,17459.1 c -145,101.7 -289.4,197.6 -433.5,288.9 23.6,82.1 46.3,164.2 67.6,246.6 6.8,26.5 13.4,53 19.8,79.6 170.1,-108.5 339.4,-223.1 507.8,-343.8 -49.9,-92.4 -102,-183.7 -161.7,-271.3"
        style="fill: #a8a2b1; fill-opacity: 1; fill-rule: nonzero; stroke: none"
        id="path38"
      />
      <path
        d="m 35485.6,13085.3 c -4,11.5 -8.2,23 -12.6,34.4 -64.8,166.3 -141.9,313.3 -227.8,443.1 32.1,188.8 -15,375.4 -112.3,553.9 125.9,-154.7 237.7,-341 325.1,-565.6 59.7,-153.2 68.2,-314.5 27.6,-465.8"
        style="fill: #d9d9ea; fill-opacity: 1; fill-rule: nonzero; stroke: none"
        id="path40"
      />
      <path
        d="m 34604.2,12428.6 c -0.3,-0.1 1.8,5.8 3.5,10.7 1.7,4.6 3.4,10 5.1,15.8 3.3,11.2 7.2,22.2 10.3,34.3 7.1,23.3 11.9,48 18.4,72.2 9.2,49.4 18.6,99.4 21.4,150.2 4.5,50.7 5,101.9 1.3,153.2 -2.5,25.6 -3.4,51.6 -6.6,77.4 l -14.1,77.2 c -22.9,102.7 -59.6,205 -110,306.1 l -17.4,39.1 c -6.7,12.6 -14,24.9 -20.4,37.9 -13,26.1 -27,51.7 -39.7,79.2 -28.6,52.3 -59.9,104.5 -86.6,164.9 l -0.5,1 c -2.4,5.4 0,11.8 5.5,14.2 2.8,1.2 5.8,1.2 8.4,0.1 59.4,-24.4 118,-53.7 172.5,-89 26.2,-18.7 51.2,-39.3 77.2,-59.5 13,-10 25.3,-20.8 38,-31.3 12.2,-11.1 22.7,-23.6 34.2,-35.5 22.4,-24.1 44.5,-48.9 66.1,-74.3 20.7,-26.1 38.1,-54.8 56.7,-82.9 l 27.5,-42.5 23.4,-45.2 c 14.7,-30.6 32.4,-60.4 44.5,-92.5 52.8,-127.3 80.5,-266.7 82.8,-406.9 0.9,-70.2 -5.1,-140.5 -17.6,-210 -7.1,-34.7 -14.2,-69.4 -25.3,-103.8 -4.8,-17.2 -10.7,-34.7 -17.4,-52 -3.2,-8.6 -6.5,-17.4 -10.6,-26.7 -3.9,-9.2 -7.3,-17.4 -13.9,-31.2 -41.6,-86.9 -145.8,-123.6 -232.7,-81.9 -79.2,38 -116.7,128.1 -91,209.5 l 7,22.2"
        style="fill: #000072; fill-opacity: 1; fill-rule: nonzero; stroke: none"
        id="path42"
      />
      <path
        d="m 20245.7,12528.9 h 14516.8 c 250.3,0 474.8,118.4 616,324.9 142.1,207.9 171.1,462 79.5,697.3 -375.9,965.8 -1204.1,1225.8 -1664.3,1294.8 -252.8,37.9 -482.6,166 -647,360.7 -2318.5,2746.4 -4855.6,4191.6 -7540.7,4295.2 -3699.9,143.3 -6542.5,-2342.6 -7054.9,-2822.2 l 1694.6,-4150.7 m 14516.8,-350.4 H 20128 c -71.2,0 -135.3,43.1 -162.2,109 l -1784.1,4369.8 c -26.4,64.9 -11.7,139.3 37.5,189.2 32,32.5 799,804.1 2096.5,1565.6 1199.4,704 3092.9,1524.9 5303.9,1439.9 2787.6,-107.7 5410.2,-1594.5 7794.9,-4419.4 109.4,-129.6 262.5,-214.9 431.2,-240.2 535.2,-80.2 1498.8,-383.7 1938.9,-1514.2 132.2,-339.7 88.5,-721.9 -116.9,-1022.2 -204.4,-299 -542.8,-477.5 -905.2,-477.5"
        style="fill: #000072; fill-opacity: 1; fill-rule: nonzero; stroke: none"
        id="path44"
      />
      <path
        d="M 29122.3,11609.7 H 6833.97 c -659.43,0 -1164.4,583.7 -1073.31,1237.2 287.14,2052.5 2565.93,1293.1 2565.93,1293.1 l 151.49,36.2 557.94,134.1 623.29,149.5 639.59,153.5 645.6,155 c 6753.2,928.7 11405.8,505.9 13905.4,72.7 h 0.5 c 252.5,-43.5 483.2,-87.1 691.6,-129.7 201,-41.1 381.2,-81.2 540.6,-118.3 293.1,-68.8 517.3,-129.2 672.3,-173.8 174.3,-50.5 261.4,-80.7 261.4,-80.7 2039.2,516.4 2832.3,-399 3135.7,-1305.9 234.2,-700.1 -291.6,-1422.9 -1029.7,-1422.9"
        style="fill: #726789; fill-opacity: 1; fill-rule: nonzero; stroke: none"
        id="path46"
      />
      <path
        d="M 29122.3,11609.7 H 6833.97 c -659.43,0 -1164.4,583.7 -1073.31,1237.2 287.14,2052.5 2565.93,1293.1 2565.93,1293.1 0,0 -802.48,-1433.9 326.26,-1631.2 718.18,-125.5 1064.35,3.3 1791.15,132.1 625.9,111 1534.1,221.9 3205.5,170.4 3039.2,-93.7 10583,-221.4 12901.1,-259.6 470.3,-7.7 867.2,363.4 874.3,833.8 5,332.8 -84,696.1 -408.6,953 2039.2,516.4 2832.3,-399 3135.7,-1305.9 234.2,-700.1 -291.6,-1422.9 -1029.7,-1422.9"
        style="fill: #ffffff; fill-opacity: 1; fill-rule: nonzero; stroke: none"
        id="path48"
      />
      <path
        d="m 9036.02,14310.3 c -60.9,-99.5 -117.33,-201.5 -167.82,-307.4 -66.35,-134.2 -115.36,-274.8 -159.42,-423.8 l -29.71,-113.9 -21.78,-117.8 c -3.46,-19.8 -8.91,-40.1 -12.37,-60.4 -1.98,-20.3 -3.48,-40.6 -6.44,-61.4 -4.95,-41.1 -9.91,-83.1 -17.33,-127.2 -22.28,36.6 -42.07,74.8 -62.38,113.9 -9.91,19.8 -18.81,39.6 -28.71,59.9 -7.92,20.3 -14.85,41.1 -21.79,61.9 l -39.1,127.2 -22.28,131.7 c -24.27,177.2 -17.33,362.4 21.29,538.6 2.96,14.9 6.43,29.7 9.9,44.6 l 557.94,134.1"
        style="fill: #504563; fill-opacity: 1; fill-rule: nonzero; stroke: none"
        id="path50"
      />
      <path
        d="m 10298.9,14613.3 c -29.2,-42.6 -57.4,-86.1 -86.1,-129.7 -80.2,-124.3 -153.5,-252.5 -217.35,-386.7 -66.83,-134.1 -115.84,-275.2 -159.41,-423.7 l -30.2,-114.4 -21.78,-117.3 c -3.46,-19.8 -8.41,-40.1 -11.89,-60.4 -2.46,-20.3 -3.96,-40.6 -6.42,-61.4 -4.96,-41.1 -10.41,-83.7 -17.83,-127.2 -22.28,36.6 -42.08,74.7 -61.88,113.8 -10.4,19.8 -19.31,39.6 -28.71,59.9 -8.42,20.3 -14.86,40.6 -22.28,61.4 l -39.11,127.7 -22.29,131.7 c -23.76,177.3 -17.32,361.9 21.29,538.7 16.84,79.2 38.13,157.4 64.37,234.1 l 639.59,153.5"
        style="fill: #504563; fill-opacity: 1; fill-rule: nonzero; stroke: none"
        id="path52"
      />
      <path
        d="m 26858.9,13593 -21.8,-131.7 -39.6,-127.2 c -7,-20.8 -13.9,-41.6 -21.8,-61.9 -9.4,-20.3 -18.3,-40.1 -28.7,-59.9 -19.8,-39.1 -40.1,-77.3 -62.4,-113.9 -7.4,44.1 -12.4,86.1 -17.3,127.2 -3,20.8 -4.5,41.1 -6.5,61.4 -3.4,20.3 -8.4,40.6 -12.3,60.4 l -21.3,117.8 -30.2,113.9 c -43.6,149 -93.1,289.6 -159.4,423.8 -64.4,134.1 -137.2,262.9 -217.4,387.1 -40.6,61.9 -80.7,123.8 -123.7,183.2 -4.5,6.9 -9,13.4 -13.9,19.8 293.1,-68.8 517.3,-129.2 672.3,-173.8 34.6,-93.5 62.4,-189.6 82.7,-287.6 38.6,-176.2 45.5,-361.4 21.3,-538.6"
        style="fill: #504563; fill-opacity: 1; fill-rule: nonzero; stroke: none"
        id="path54"
      />
      <path
        d="m 25732.1,13687 -22.3,-131.7 -39.1,-127.7 c -6.9,-20.8 -13.9,-41.1 -21.8,-61.4 -9.9,-20.3 -18.8,-40.1 -28.7,-59.9 -20.3,-39.1 -40.1,-77.2 -62.4,-113.8 -7.4,43.5 -12.4,86.1 -17.3,127.2 -3,20.8 -4.5,41.1 -6.4,61.4 -3.5,20.3 -9,40.6 -12.4,60.4 l -21.8,117.3 -29.7,114.4 c -43.6,148.5 -93.1,289.6 -159.4,423.7 -64.4,134.2 -137.6,262.4 -217.8,386.7 -40.2,61.9 -80.2,124.3 -123.3,183.7 -20.8,30.7 -42.6,59.9 -63.9,89.6 -19.8,28.2 -44.5,60.4 -58.4,81.7 l 2.5,2.4 h 0.5 c 252.5,-43.5 483.2,-87.1 691.6,-129.7 76.7,-153.4 134.1,-317.3 168.8,-485.6 38.6,-176.8 45.5,-361.4 21.3,-538.7"
        style="fill: #504563; fill-opacity: 1; fill-rule: nonzero; stroke: none"
        id="path56"
      />
      <path
        d="m 29122.2,11784.8 h -8192.3 c 301.7,148.9 504.5,269.1 585.7,319.1 317.9,27.5 627.6,107.3 923.6,222.1 h 5751.6 c 689.5,0 1180.7,675.3 961.9,1329.2 -22.1,66.1 -47,132.3 -75.1,197.9 433.4,-193.4 718.8,-514.9 906.2,-869.7 0.8,-2.2 1.5,-4.5 2.3,-6.7 92.9,-277.7 47.7,-574 -124.2,-812.7 -173.5,-241 -443.1,-379.2 -739.7,-379.2 m -15955,0 H 6834.07 c -262.7,0 -512.31,113.7 -684.76,312 -173.29,199.2 -251.71,463.7 -215.09,725.7 15.14,108.3 36.55,210 64.16,304.9 104.47,176.9 233.78,312 377.68,414.3 -3.25,-19.7 -6.3,-39.7 -9.13,-59.9 -85.1,-610.5 386.63,-1155.8 1002.64,-1155.8 h 5017.03 c 258.3,-204.1 519,-383.7 780.6,-541.2"
        style="fill: #b2b2d4; fill-opacity: 1; fill-rule: nonzero; stroke: none"
        id="path58"
      />
      <path
        d="m 8332.56,13701.3 c -17.81,0 -35.6,2.5 -52.94,7.5 -29.61,8.6 -72.39,20.3 -125.89,33 31.33,91.6 65.18,173.6 94.55,238.9 14.32,-4.3 22.3,-6.8 23.15,-7.1 17.97,-6 36.68,-9 55.43,-9 13.7,0 27.42,1.6 40.9,4.8 l 76.11,18.3 c -10.66,-88.7 -13.63,-178.5 -8.98,-267.4 l -57.72,-13.8 c -14.72,-3.5 -29.67,-5.2 -44.61,-5.2 m 450.29,102.6 c 25.34,68 53.32,134.2 85.35,199 15.83,33.2 32.24,66 49.19,98.5 l 686.6,164.9 c -3.15,-13.5 -6.16,-27.1 -9.05,-40.6 -16.84,-77.1 -27.56,-155.8 -32.33,-234.6 l -526.59,-126.3 -253.17,-60.9"
        style="fill: #b9b3c4; fill-opacity: 1; fill-rule: nonzero; stroke: none"
        id="path60"
      />
      <path
        d="m 9994.31,14094.7 c 0.38,0.7 0.76,1.5 1.14,2.2 12.95,27.2 26.15,54 39.85,80.7 12.7,-21.5 25.5,-42.9 38.4,-63.9 l -79.39,-19 m 15189.59,240.9 c -73,13.7 -148.2,27.3 -225.5,41 7.5,50.7 7.9,102.7 0.8,154.6 -5.5,40.7 -15.4,80.1 -29.4,117.9 20.4,-3.7 40.5,-7.3 60.6,-10.9 35.3,-50.5 68.9,-102.7 102.6,-154.6 31.4,-48.7 61.7,-98 90.9,-148"
        style="fill: #b9b3c4; fill-opacity: 1; fill-rule: nonzero; stroke: none"
        id="path62"
      />
      <path
        d="m 6376.06,13541.7 c 16.31,98.8 37.75,190.3 63.72,275 31.13,24.2 63.61,46.8 97.42,67.8 267.43,166.3 587.35,217.2 879.29,217.2 396.42,0 741.13,-94 831.79,-121 -29.37,-65.3 -63.22,-147.3 -94.55,-238.9 -165.92,39.7 -434.94,89.9 -734.65,89.9 -343.88,0 -728.18,-66.2 -1043.02,-290"
        style="fill: #ffffff; fill-opacity: 1; fill-rule: nonzero; stroke: none"
        id="path64"
      />
      <path
        d="m 8434.89,13720.3 c -4.65,88.9 -1.68,178.7 8.98,267.4 l 473.52,113.7 c -16.95,-32.5 -33.36,-65.3 -49.19,-98.5 -32.03,-64.8 -60.01,-131 -85.35,-199 l -304.77,-73.3 -43.19,-10.3"
        style="fill: #a8a2b1; fill-opacity: 1; fill-rule: nonzero; stroke: none"
        id="path66"
      />
      <path
        d="m 9562.61,13991.1 c 4.77,78.8 15.49,157.5 32.33,234.6 2.89,13.5 5.9,27.1 9.05,40.6 l 349.57,83.9 c 10.71,-38.5 26.26,-76.2 46.84,-112.5 11.6,-20.3 23.2,-40.3 34.9,-60.1 -13.7,-26.7 -26.9,-53.5 -39.85,-80.7 -0.38,-0.7 -0.76,-1.5 -1.14,-2.2 l -335,-80.4 -96.7,-23.2"
        style="fill: #a8a2b1; fill-opacity: 1; fill-rule: nonzero; stroke: none"
        id="path68"
      />
      <path
        d="m 27025.2,13902.5 c -24.2,0 -48.4,3.7 -71.7,11.1 -22.7,7.2 -51.6,16.3 -86.7,26.9 -5.7,64.3 -15.5,128.3 -29.2,191.1 -6,28.9 -12.7,57.7 -19.9,86.3 91.5,-27.6 138.6,-43.8 141.1,-44.7 18.6,-6.5 38.1,-9.7 57.6,-9.7 14.4,0 28.9,1.7 43.1,5.3 35.7,9.1 71.1,17.7 106.3,25.9 62.5,-73.6 111.5,-152.4 149.2,-234.4 -75.6,-14.8 -153,-31.8 -232.5,-50.9 -18.8,-4.6 -38.1,-6.9 -57.3,-6.9 m -619.9,165.8 c -96.2,24.7 -203.8,51.2 -322.7,79.1 -113.7,26.5 -238,54.5 -372.8,83.3 -20.1,96.2 -47.6,190.9 -81.9,283.1 229.6,-48.4 430,-94.7 600.6,-136.6 63.9,-99.9 123,-202.7 176.8,-308.9"
        style="fill: #b9b3c4; fill-opacity: 1; fill-rule: nonzero; stroke: none"
        id="path70"
      />
      <path
        d="m 29077.6,13853.1 c -266.5,118.9 -588.8,189.4 -978.7,189.4 -235.7,0 -496.3,-25.8 -783.9,-82.2 -37.7,82 -86.7,160.8 -149.2,234.4 341,79.6 653.8,119.4 937.9,119.4 298.2,0 564.9,-43.8 799.7,-131.2 68.5,-106 125.9,-217 174.2,-329.8"
        style="fill: #ffffff; fill-opacity: 1; fill-rule: nonzero; stroke: none"
        id="path72"
      />
      <path
        d="m 26866.8,13940.5 c -32.1,9.8 -69.4,20.9 -111.9,33.2 -92.1,26.5 -208.7,58.5 -349.6,94.6 -53.8,106.2 -112.9,209 -176.8,308.9 272.2,-67 468.9,-123 589.2,-159.3 7.2,-28.6 13.9,-57.4 19.9,-86.3 13.7,-62.8 23.5,-126.8 29.2,-191.1"
        style="fill: #a8a2b1; fill-opacity: 1; fill-rule: nonzero; stroke: none"
        id="path74"
      />
      <path
        d="m 25709.8,14230.7 c -54.3,11.6 -110.2,23.3 -167.8,35.1 -112.9,23 -232.3,46.4 -358.1,69.8 -29.2,50 -59.5,99.3 -90.9,148 -33.7,51.9 -67.3,104.1 -102.6,154.6 232.9,-42.1 445.5,-84 637.5,-124.4 34.3,-92.2 61.8,-186.9 81.9,-283.1"
        style="fill: #a8a2b1; fill-opacity: 1; fill-rule: nonzero; stroke: none"
        id="path76"
      />
      <path
        d="m 29983.8,12983.4 c -187.4,354.8 -472.8,676.3 -906.2,869.7 -48.3,112.8 -105.7,223.8 -174.2,329.8 514,-191.3 875.4,-591.6 1080.4,-1199.5"
        style="fill: #d9d9ea; fill-opacity: 1; fill-rule: nonzero; stroke: none"
        id="path78"
      />
      <path
        d="m 5998.38,13127.4 c 86.63,297.6 234.36,528.4 441.4,689.3 -25.97,-84.7 -47.41,-176.2 -63.72,-275 -143.9,-102.3 -273.21,-237.4 -377.68,-414.3"
        style="fill: #d9d9ea; fill-opacity: 1; fill-rule: nonzero; stroke: none"
        id="path80"
      />
      <path
        d="m 5597.77,12753.7 15.49,26.3 c 4.69,7.9 9.28,15 13.81,21.9 9.38,13.9 18.95,27.6 28.74,40.3 19.19,26.5 40.56,50.1 61.26,74.4 43.43,46.5 89.18,90.1 138.67,129 98.22,78.4 207.66,141.8 323.34,186.2 115.99,43.1 235.3,74.4 355.93,80 59.4,7.2 119.82,1.9 178.32,-0.3 58.74,-4.7 116.92,-16.7 173.27,-28.4 5.83,-1.2 9.59,-6.9 8.37,-12.8 -0.78,-3.8 -3.47,-6.7 -6.84,-7.9 l -1.26,-0.5 c -55.05,-20.2 -109.14,-32.7 -161.09,-52.3 -51.76,-20.4 -103.05,-36.6 -151.22,-60.9 -98.02,-42.1 -187.55,-96.3 -270.24,-154.6 -83.5,-57.4 -157.4,-125.4 -225.56,-196 -33.82,-35.7 -65.92,-72.5 -96.26,-110 -14.8,-18.8 -29.88,-37.6 -43.46,-56.5 -7.38,-9.4 -13.75,-18.7 -20.09,-27.8 l -16.02,-22.3 -12.97,-18.1 c -56.19,-78.3 -165.25,-96.2 -243.52,-39.9 -73.76,52.9 -93.53,153.3 -48.67,230.2"
        style="fill: #000072; fill-opacity: 1; fill-rule: nonzero; stroke: none"
        id="path82"
      />
      <path
        d="m 29642.2,11864.7 -5.5,39.3 -8,47 c -6.6,31.5 -13.1,63.3 -22.2,94.3 -17.8,62.2 -40,122.6 -69.1,179.1 -56.2,113.9 -137.4,212.1 -241,292.6 -104,80.9 -231.9,137.3 -369.6,187.2 -138.4,49.6 -288.2,82.4 -445.6,123 -8.8,2.2 -14.2,11.1 -12,19.8 1.4,5.5 5.5,9.7 10.4,11.5 154.7,55.4 319.6,78.8 488.7,70.3 84.5,-4.7 170.3,-16.4 254.6,-40.7 84.2,-24.6 167.7,-57.6 247.1,-102.6 158.8,-89.2 297.4,-226.8 387.8,-389.4 44.5,-81.4 80.5,-167.2 102.5,-256.2 11.7,-44.3 20.2,-89.3 25.8,-135 2.7,-22.9 5.4,-45.8 6.1,-69.4 l 1,-35.9 c 0,-13.1 0,-22.6 -0.7,-41.9 -3.3,-96.2 -84,-171.4 -180.2,-168.1 -85.8,3 -155,67.6 -166.5,149.8 l -3.6,25.3"
        style="fill: #000072; fill-opacity: 1; fill-rule: nonzero; stroke: none"
        id="path84"
      />
      <path
        d="m 30034.9,12830.7 c -7.4,11.3 -23.6,33.6 -37.3,51.4 -14.2,18.9 -29.7,37.6 -44.9,56.5 -31.5,37.2 -64.3,74 -99.5,109 -69.5,70.7 -146.5,135.3 -230.5,191.1 -83.3,57.4 -174.2,105.4 -270.9,145.8 -96.3,44.6 -199.2,73.9 -309.1,112.4 l -0.6,0.3 c -4.8,1.7 -7.4,7 -5.7,11.8 1.1,2.9 3.4,5 6.2,5.9 111,32.5 230.2,47.9 348.6,36.5 60.1,-1.8 118.1,-15.8 177.4,-27.6 29.3,-6.9 57.7,-16.9 86.8,-25.4 29.2,-8.2 57.7,-18.6 85.7,-30.3 113.1,-44.4 221,-104.2 319.4,-177.5 48.7,-37.3 96.3,-76.5 140.5,-120.1 22,-21.9 43.9,-44 64.5,-68.2 10.5,-11.5 20.9,-24.1 30.8,-36.9 5,-6.2 10.1,-12.8 15.3,-19.9 l 17,-23.7 c 56.3,-78.8 38.2,-188.2 -40.5,-244.6 -78.8,-56.3 -188.2,-38.2 -244.6,40.5 -1.3,1.9 -2.5,3.7 -3.8,5.5 l -4.8,7.5"
        style="fill: #000072; fill-opacity: 1; fill-rule: nonzero; stroke: none"
        id="path86"
      />
      <path
        d="m 7416.49,14101.7 c -291.94,0 -611.86,-50.9 -879.29,-217.2 -330.32,-205.4 -533.21,-562.7 -602.98,-1062 -36.62,-262 41.8,-526.5 215.09,-725.7 172.45,-198.3 422.06,-312 684.76,-312 H 29122.2 c 296.6,0 566.2,138.2 739.7,379.2 171.9,238.7 217.1,535 124.2,812.7 -395.7,1182.7 -1380.3,1583.7 -2926.6,1192.1 -33.3,-8.4 -68.3,-6.9 -100.7,4.4 -13.5,4.7 -1379.9,472.8 -4022.4,757 -2438.2,262.2 -6491.9,416.9 -11959.5,-334.3 l -2609.14,-626.5 c -31.93,-7.6 -65.23,-6.2 -96.33,4.2 -6.21,2 -395.9,128.1 -854.94,128.1 M 29122.2,11434.4 H 6834.07 c -364.1,0 -710.05,157.6 -949.12,432.3 -239.89,275.8 -348.44,641.8 -297.75,1004.3 84.95,607.9 342.82,1049.3 766.5,1312 742.04,460.3 1743.11,207.7 1978.95,138.4 l 2570.95,617.3 c 5.6,1.3 11.3,2.4 17,3.2 5516.8,758.7 9609.3,600.9 12070.8,334.8 2423.8,-262 3759.8,-667 4032.2,-755.7 942.4,230.3 1715.3,180.1 2297.7,-149.2 464.5,-262.7 799.9,-694.7 997.1,-1283.9 129.1,-386 66.4,-797.3 -172.1,-1128.6 -240.2,-333.6 -613.4,-524.9 -1024.1,-524.9"
        style="fill: #000072; fill-opacity: 1; fill-rule: nonzero; stroke: none"
        id="path88"
      />
      <path
        d="m 24455.7,25085.5 -2140.9,-4167.8 c -243.8,298.7 -495.5,556.8 -748.8,779.4 -1623.7,1429.4 -3302.6,1426.1 -3302.6,1426.1 995.4,1026.4 2474.6,1846.8 2474.6,1846.8 2518.6,1284.6 3331.6,846 3593.8,454.7 116.1,-174.3 123.9,-339.2 123.9,-339.2"
        style="fill: #726789; fill-opacity: 1; fill-rule: nonzero; stroke: none"
        id="path90"
      />
      <path
        d="m 21176.4,22347.4 c -557,400.6 -1120.2,675.3 -1630,863.7 -231.5,85.6 -466.6,157.9 -704.1,217 889.2,772.5 1920.4,1354.9 1978.5,1387.4 1279,652.1 2077.7,833 2570.3,833 283.7,0 465.9,-60 579.6,-124.6 19.1,-10.8 37,-22.1 53.8,-33.8 -2.5,-0.1 -5,-0.1 -7.6,-0.2 -108.5,14.4 -218.6,21.2 -329.6,21.2 -1210.7,0 -2540.4,-812.2 -3382.8,-1435.7 -359.7,-266.2 -320.8,-806.5 67.3,-1029.7 353.5,-203.4 616.6,-462.3 804.6,-698.3"
        style="fill: #504882; fill-opacity: 1; fill-rule: nonzero; stroke: none"
        id="path92"
      />
      <path
        d="m 18660.7,23265.6 c 713.5,-98.2 2256.8,-488 3617.9,-2034.4 l 1996,3885.8 c -16.8,84.5 -79,279.4 -303.9,406.9 -311.3,176.7 -1134.4,319.2 -3149.9,-708.4 -62.1,-34.7 -1236.2,-697.9 -2160.1,-1549.9 m 3653.9,-2522.9 c -52.3,0 -102.3,23.4 -135.7,64.4 -1726,2113.6 -3893.8,2141 -3915.5,2141.1 -70.4,0.1 -134,42.2 -161.4,107 -27.3,64.8 -13.4,139.7 35.6,190.2 1001.9,1032.7 2454.3,1843.9 2515.7,1877.9 1.8,1 3.6,1.9 5.4,2.9 1658.9,846.3 2834.7,1080.7 3494.9,696.7 450.5,-261.9 476.1,-710.2 477,-729.1 1.4,-30.5 -5.3,-60.9 -19.2,-88 l -2141,-4168 c -27,-52.6 -78.7,-87.9 -137.5,-94.2 -6.1,-0.6 -12.2,-0.9 -18.3,-0.9"
        style="fill: #000072; fill-opacity: 1; fill-rule: nonzero; stroke: none"
        id="path94"
      />
      <path
        d="m 24149.4,18773.9 c -118.9,-257 -252.8,-518.5 -402.9,-784.9 l -2181.1,3717 c 0,0 448.6,2444.7 2223,3537.7 254.4,157.1 590.9,44.4 705.8,-230.9 48,-114.9 99.3,-249.8 150.1,-403 l 0.6,-0.6 c 371,-1115.2 717.5,-3213.5 -495.5,-5835.3"
        style="fill: #ff8dc1; fill-opacity: 1; fill-rule: nonzero; stroke: none"
        id="path96"
      />
      <path
        d="m 23840.2,18536.4 c -182.4,563.7 -401.5,1064.8 -647.1,1510.5 115.3,137.9 190.6,293.6 225,466.3 99.4,498.6 -181.3,987.5 -328.2,1201.2 373.2,576.9 203.9,1394.1 196,1430.9 -17.7,82.2 -90.7,138.5 -171.3,138.5 -11.3,0 -22.8,-1.1 -34.2,-3.4 l -852.9,-169.9 c 328.3,697.8 851.1,1490.3 1652.6,1984 49.2,30.3 103.8,45.7 159.6,45.7 32.3,0 65,-5.1 97.3,-15.5 88.7,-28.7 160,-94 195.6,-179.4 19.7,-47.4 40.3,-98.8 61.3,-154 -65.6,28.1 -142.3,48.1 -227.9,48.1 -182.6,0 -405.6,-90.8 -647.7,-386.7 -315.8,-385.9 -481.9,-607.1 -569,-731.6 -36,-51.4 3.3,-118.9 62.1,-118.9 5.1,0 10.3,0.5 15.7,1.6 l 300.2,59.6 c 19.5,3.9 39.1,5.7 58.3,5.7 136.3,0 258.2,-94.2 289,-231.7 67.2,-299.9 116.7,-831.8 -94.4,-1542.2 -42.1,-141.5 -31.7,-294.8 36,-426.1 123.4,-239 270.9,-697.6 37.2,-1287.8 -47.6,-120.2 -51.7,-253.2 -12.8,-376.4 65.7,-208 189.9,-538.8 393.4,-861.5 -60.4,-134.2 -124.9,-270 -193.8,-407"
        style="fill: #b262a9; fill-opacity: 1; fill-rule: nonzero; stroke: none"
        id="path98"
      />
      <path
        d="m 21750.7,21736.6 1990.6,-3392.2 c 1682.3,3186.4 981,5666 591.3,6600.9 -35.6,85.4 -106.9,150.7 -195.6,179.4 -88.2,28.4 -179.3,17.6 -256.9,-30.2 -1531.2,-943.1 -2045.1,-2976.6 -2129.4,-3357.9 m 1996.1,-3923 c -62.1,0 -119.7,32.9 -151.2,86.5 l -2181.3,3717.5 c -21.2,36.2 -28.8,78.9 -21.2,120.3 18.9,102.9 483.7,2534.2 2303.2,3655 163.8,100.9 363.7,124.8 548.2,65.2 186.4,-60.1 336.4,-197.9 411.5,-377.9 420.4,-1008.7 1188.3,-3727.1 -756.6,-7177.4 -30.8,-54.6 -88.4,-88.6 -151.1,-89.2 h -1.5"
        style="fill: #000072; fill-opacity: 1; fill-rule: nonzero; stroke: none"
        id="path100"
      />
      <path
        d="m 21928.9,22872.4 1185.7,236.1 c 0,0 188.3,-877.3 -242.1,-1394.7 0,0 1010.7,-1219.3 -216.5,-1866.1 l -1090.6,1858.5 c 0,0 156.8,710.9 363.5,1166.2"
        style="fill: #726789; fill-opacity: 1; fill-rule: nonzero; stroke: none"
        id="path102"
      />
      <path
        d="m 21751.8,21734.7 965.9,-1646 c 198.8,136.2 318.6,301.5 356.8,493 81,405.9 -215.7,874.1 -336.9,1020.3 -53.8,64.9 -53.7,159 0.2,223.9 265.9,319.6 257.4,815.5 230.4,1074.8 l -915,-182.2 c -144.7,-349 -261,-813.4 -301.4,-983.8 m 904.3,-2062.2 c -60.2,0 -118.7,31.2 -151.2,86.6 l -1090.6,1858.5 c -22.4,38.1 -29.5,83.2 -20,126.4 6.6,29.7 163.2,734.1 375.1,1200.8 23.4,51.4 70,88.3 125.3,99.4 l 1185.7,236.2 c 93.3,18.6 185.4,-41.4 205.5,-135.1 7.9,-36.8 177.2,-854 -196,-1430.9 146.9,-213.7 427.6,-702.6 328.2,-1201.2 -68.3,-342.5 -297.2,-618.5 -680.4,-820.4 -26,-13.8 -54,-20.3 -81.6,-20.3"
        style="fill: #000072; fill-opacity: 1; fill-rule: nonzero; stroke: none"
        id="path104"
      />
      <path
        d="m 16463.5,22634 c 0,0 -1678.3,51.1 -3342.6,-1331.6 -115.5,-95.7 -230.5,-197.9 -344.7,-308.4 -143.1,-137.7 -285.8,-287.1 -425.9,-449.6 l -2020.4,4227.2 c 0,0 0.5,5.7 1.8,16.1 6.6,45.9 33.3,180.5 131.7,319.4 273.6,383.6 1098.7,798.6 3579.2,-556.6 0,0 1455.2,-862.4 2420.9,-1916.5"
        style="fill: #726789; fill-opacity: 1; fill-rule: nonzero; stroke: none"
        id="path106"
      />
      <path
        d="m 13079.9,22202.6 c -9.4,30.1 -19.1,60.2 -29,90 275.5,349.5 655.1,622.1 962.4,805.8 247.2,147.8 268.9,494.9 41.6,671.5 -1338.5,1040.4 -2253.2,1309.3 -2841.1,1309.3 -50,0 -97.6,-1.9 -142.9,-5.5 -91.6,53.9 -194,84.3 -298.5,89.8 17.2,11.2 35.5,22.1 54.9,32.4 108,57.2 275.3,108.7 528,108.7 487.6,0 1292.8,-192.1 2600.3,-906.3 46.6,-27.9 725.9,-437.3 1444.5,-1018.7 -424,-118.2 -838,-278.5 -1235.1,-480.5 -390.7,-198.7 -752.5,-431.1 -1085.1,-696.5"
        style="fill: #504882; fill-opacity: 1; fill-rule: nonzero; stroke: none"
        id="path108"
      />
      <path
        d="m 10511.8,24797.7 1883.6,-3940.9 c 1404.9,1507.1 2958.9,1852.9 3674.9,1930.7 -899.7,878.7 -2053.5,1574.2 -2114.7,1610.8 -1985,1084.3 -2812.1,965.2 -3128.3,797.6 -228.5,-121.2 -296.3,-314.3 -315.5,-398.2 m 1838.6,-4428.3 c -7.8,0 -15.6,0.5 -23.4,1.5 -58.6,7.9 -109.2,44.8 -134.7,98.1 L 10172,24696.1 c -13.2,27.6 -19,58.1 -16.7,88.6 1.4,18.9 39.8,466.3 497.7,715.3 670.9,364.9 1839.6,97.2 3473.5,-795.9 1.8,-0.9 3.5,-1.9 5.3,-2.9 60.3,-35.8 1488.9,-888 2460.8,-1948.8 47.5,-51.9 59.4,-127.3 30,-191.3 -29.3,-64 -96.7,-104.8 -164.5,-102.1 -21.3,-0.7 -2189.4,34.5 -3975.2,-2029.1 -33.5,-38.7 -82,-60.5 -132.5,-60.5"
        style="fill: #000072; fill-opacity: 1; fill-rule: nonzero; stroke: none"
        id="path110"
      />
      <path
        d="m 10454.8,18453.6 c 111.4,-260.2 237.8,-525.4 380.2,-796 l 2286.9,3653.5 c 0,0 -378.2,2456.5 -2120.4,3599.5 -249.9,164.2 -589.4,61.2 -712.2,-210.8 -51.3,-113.5 -106.5,-246.9 -161.6,-398.6 l -0.6,-0.5 c -402.91,-1104.2 -809.52,-3191.9 327.7,-5847.1"
        style="fill: #ff8dc1; fill-opacity: 1; fill-rule: nonzero; stroke: none"
        id="path112"
      />
      <path
        d="m 10714.7,18299.2 c -56.1,123.1 -108.8,244.9 -158.2,365.6 150.8,343.9 223,659.1 293.2,860.8 42.4,122.1 144.3,327 100.1,448.5 -216.6,596.5 -14.8,923.1 115.3,1158.6 71.5,129.2 86.3,282.1 48.3,424.8 -190.7,716.1 -125.9,1246.4 -50.1,1544.3 34.1,133.7 154.2,223.5 287.2,223.5 21.9,0 44.2,-2.4 66.5,-7.5 l 298.4,-68.1 c 6,-1.4 12,-2.1 17.8,-2.1 57.6,0 97.3,65.3 63.2,117.2 -83.5,126.9 -243.2,352.6 -547.7,747.4 -240.2,311.3 -466.4,405.2 -651.9,405.2 -79.4,0 -151.3,-17.2 -213.6,-41.9 22.6,54.7 44.6,105.4 65.7,152.2 38.1,84.4 111.2,147.7 200.7,173.8 29.7,8.6 59.6,12.8 89.1,12.8 58.8,0 116.1,-16.9 166.8,-50.2 787.1,-516.4 1286.9,-1323.3 1595,-2030.3 l -847.7,194.1 c -13.2,3 -26.3,4.4 -39.2,4.4 -79.2,0 -150.5,-53.6 -170.1,-133.5 -8.9,-36.5 -201.7,-848.6 154.8,-1435.9 -152.9,-209.5 -447.7,-690.3 -362.5,-1191.6 13.3,-78.6 35.1,-153.9 65.3,-225.9 -63.8,-131.4 -124.4,-266 -181.9,-403.9 -184.8,-443.6 -313.8,-867.4 -404.5,-1242.3"
        style="fill: #b262a9; fill-opacity: 1; fill-rule: nonzero; stroke: none"
        id="path114"
      />
      <path
        d="m 10738.7,24814.3 c -29.5,0 -59.4,-4.2 -89.1,-12.8 -89.5,-26.1 -162.6,-89.4 -200.7,-173.8 -416.4,-923.4 -1188.66,-3382 401.5,-6615 l 2087.2,3334.4 c -73.4,383.5 -528.5,2430.7 -2032.1,3417 -50.7,33.3 -108,50.2 -166.8,50.2 m 96,-7332 c -2.1,0 -4.3,0 -6.5,0.1 -62.7,2.3 -119.3,38 -148.5,93.4 -1845.14,3504.4 -999.44,6199.8 -550.2,7196 80.2,177.8 234.1,311.3 422.2,366.1 186,54 385.1,24.7 546,-80.9 1786.7,-1172 2181.5,-3615.5 2197.4,-3719 6.4,-41.5 -2.3,-84 -24.7,-119.6 l -2287.2,-3653.9 c -32.1,-51.3 -88.3,-82.2 -148.5,-82.2"
        style="fill: #000072; fill-opacity: 1; fill-rule: nonzero; stroke: none"
        id="path116"
      />
      <path
        d="m 12792,22487.3 -1178.4,269.8 c 0,0 -213.4,-871.6 202,-1401 0,0 -1045.3,-1190.1 162.8,-1871.5 l 1143.5,1826.8 c 0,0 -136.2,714.9 -329.9,1175.9"
        style="fill: #726789; fill-opacity: 1; fill-rule: nonzero; stroke: none"
        id="path118"
      />
      <path
        d="m 11754.4,22545.2 c -34,-258.9 -56.3,-755.5 199.1,-1081 52,-66.4 49.4,-160.4 -6.2,-223.8 -4.4,-4.9 -449.8,-522.4 -365.9,-1011.6 32.9,-191.9 147.9,-360.2 342.2,-501.6 l 1012.9,1618 c -35.6,171.4 -138.5,639 -273,991.9 l -909.1,208.1 m 223.9,-3235.8 c -29.2,0 -58.7,7.3 -85.9,22.6 -377.3,212.8 -598.2,495.1 -656.6,839.3 -85.2,501.3 209.6,982.1 362.5,1191.6 -356.5,587.3 -163.7,1399.4 -154.8,1435.9 22.8,92.9 115.6,150.3 209.3,129.1 l 1178.3,-269.8 c 55,-12.5 100.6,-50.9 122.5,-102.9 198.4,-472.5 334.8,-1181.1 340.5,-1211 8.2,-43.4 -0.2,-88.4 -23.7,-125.8 l -1143.5,-1826.8 c -33.1,-52.9 -90.1,-82.2 -148.6,-82.2"
        style="fill: #000072; fill-opacity: 1; fill-rule: nonzero; stroke: none"
        id="path120"
      />
      <path
        d="m 24013.6,15312.9 c 0,0 222.2,-296.6 596.7,-533.4 199.4,-126.3 239.8,-399.3 81.7,-573.6 -564.2,-623 -1809.1,-1810 -3196.7,-1927.5 -11.9,-1.3 -24.2,-2.2 -36.5,-3.1 0,0 -4954.1,-3187.8 -9145.8,336.9 0,0 -1318.3,231.9 -2160.5,1712.1 -56.2,99.1 -54,214.9 -4.8,309.3 27.7,54.6 71.1,101.7 128.2,134.1 99.7,56.8 228.3,112.7 385.5,147.2 0,0 -358.3,200.1 -641.5,803.4 -67.62,144.2 -18.9,317.2 113.7,405.9 146.3,97.4 329.4,250.7 440,459.5 49.2,92.7 83.9,196.6 94.9,311.5 7.9,81.7 20.6,251.2 52.2,485.8 11.9,88.3 26.4,185.3 44.4,290.6 32.9,193.5 76.8,414.1 137,653.1 331.5,1326.3 1145.2,3226.3 3187.5,4336.4 50.9,27.9 102.8,55 155,81.7 528.7,269.1 1087.7,462.2 1660.3,578.4 44.8,9.1 90,17.9 134.8,26.2 693.8,125.4 1404.7,138.9 2104.7,38.9 83.9,-11.8 167.7,-25.8 251.2,-41.1 368.8,-67.3 733.7,-166.9 1089.8,-298.4 108.1,-39.7 217.4,-83 327.2,-130.6 386.9,-165.6 785.1,-377 1176.4,-648.3 1018.7,-705.1 1991.4,-1811.7 2603.5,-3545.2 70.2,-198.4 135.2,-405 195.4,-620 0,0 3.1,-48.9 16.2,-130.6 9.3,-58.5 23.3,-133.7 44.8,-219.7 74.2,-295.3 234.5,-717.8 577.9,-1028.9 l 0.4,-0.4 c 70.7,-64.6 148.9,-123.6 236.3,-176 161.6,-97.5 228.8,-299.3 152.8,-471.9 -131.7,-300.5 -382.9,-699.4 -802.7,-762.3"
        style="fill: #726789; fill-opacity: 1; fill-rule: nonzero; stroke: none"
        id="path122"
      />
      <path
        d="m 21751.1,12565.4 -293.7,-287 c -11.9,-1.3 -24.2,-2.2 -36.5,-3.1 0,0 -4954.1,-3187.8 -9145.8,336.9 0,0 169.2,1527.9 1913.2,1910 70.6,15.5 138.4,44.1 194.3,89.9 311.2,255.3 2052.1,568.9 3387.1,-3.6 60.8,-26.1 126.4,-37.4 192.5,-36 584.6,12.5 2883.9,-144 3788.9,-2007.1"
        style="fill: #ffffff; fill-opacity: 1; fill-rule: nonzero; stroke: none"
        id="path124"
      />
      <path
        d="m 14364.4,17638.7 c 72.6,-196.5 -151.9,-368.2 -326.6,-251.5 -140,93.6 -309.2,173.6 -502.1,203.9 -499.3,78.6 466.6,1027.9 828.7,47.6"
        style="fill: #ffffff; fill-opacity: 1; fill-rule: nonzero; stroke: none"
        id="path126"
      />
      <path
        d="m 18087.4,17597.7 c -95.6,-146.5 57.5,-326.1 220.5,-261.3 227.5,90.5 522.4,144.8 873.2,74.5 787.2,-157.7 -173.2,1597.9 -1093.7,186.8"
        style="fill: #ffffff; fill-opacity: 1; fill-rule: nonzero; stroke: none"
        id="path128"
      />
      <path
        d="m 18144.4,23386.3 c -12.7,-14.5 -25.5,-28.4 -39.1,-44.2 -21.1,-28.8 -43.9,-55.9 -68.5,-81.7 -92.6,-118.8 -204.2,-242.9 -311.8,-395.3 -27.2,-37.6 -55.7,-74.7 -85.1,-112.3 -15.9,-17.5 -28.6,-38.4 -41.8,-59.4 l -39.5,-62.9 c -51.8,-84.8 -111.5,-165.2 -156.7,-260 -48.4,-92.1 -99.3,-184.3 -147.6,-280 l -131.3,-299.7 -33.8,-76 c -12.3,-25.3 -22.4,-51.1 -31.2,-77.8 l -57.5,-158.6 -118.1,-322.4 c -32.1,-110.5 -65.9,-221.9 -100.1,-334.2 l -52.3,-168.6 -26.3,-85.2 -21.6,-86.1 -88.2,-348.1 -47.4,-175.7 -23.8,-88.7 -18.8,-88.6 c -18,-84.8 -36.5,-169.5 -55.4,-254.7 -31.6,-139.4 -227.9,-149.4 -273.1,-14 -28.5,84.7 -56.2,169.9 -83,255.6 -72.4,240.7 -126.9,486.2 -184,733.9 l -20.6,93.5 -15.4,93.9 -28.5,189.2 c -19.3,126.2 -37.8,253.8 -54.5,381.8 -11,128.9 -18.9,259.1 -26.3,389.7 -6.6,130.6 -18,262.6 -9.7,395.8 l 12.8,403.2 c 12.7,135.9 31.1,272.6 48.2,410.7 l 13.2,104 c 4.4,34.5 14.1,69 20.7,103.9 l 35.1,156.9 11.4,52.4 10.1,44.6 c 44.8,9.1 90,17.9 134.8,26.2 693.8,125.4 1404.7,138.9 2104.7,38.9"
        style="fill: #504563; fill-opacity: 1; fill-rule: nonzero; stroke: none"
        id="path130"
      />
      <path
        d="m 15883.4,23224.2 c -21.5,-11.8 -43.9,-23.2 -66.7,-33.2 10.5,2.6 20.6,6.1 30.7,10 l 3.5,-2.6 c 2.2,-1.7 4.4,-2.2 5.7,-3.5 -2.6,-7 -4.8,-13.5 -8.3,-18.8 l -7.1,-10.9 -8.3,-11.8 c -3.1,-3.5 -5.7,-7.4 -8.8,-10.9 -3.1,-3.1 -6.6,-7 -10.1,-12.2 -13.2,-19.7 -28.5,-34.6 -44.3,-53.3 -15.8,-21 -32.5,-40.7 -50.5,-59.5 -67.2,-86.9 -148.9,-177.3 -227,-288.7 -20.3,-27.1 -40.9,-54.6 -62.4,-81.7 -11.4,-13.1 -21.1,-28.4 -30.3,-43.7 l -29,-45.4 c -37.8,-62.1 -81.2,-120.6 -114.6,-190.1 -35.1,-67.3 -72.5,-134.5 -107.6,-204.4 l -96.2,-218.9 -24.1,-55.5 c -9.2,-18.3 -16.2,-37.1 -22.8,-56.3 l -42.2,-116.3 -86.1,-235 c -23.2,-80.8 -48.3,-162.1 -73.3,-243.8 l -37.8,-123.2 -19.7,-62.4 -15.4,-62.9 -64.5,-253.9 -34.3,-128.4 -17.5,-64.2 -13.7,-65.1 c -13.1,-61.6 -26.7,-123.7 -40.8,-185.7 -22.8,-101.8 -166,-109.2 -198.9,-10.5 -20.7,62.1 -40.9,124.5 -61,187 -52.7,175.2 -92.3,354.3 -134,535.6 l -14.9,67.7 -11.4,69.1 -21.1,137.6 c -13.6,92.6 -27.2,185.6 -39.5,279.1 -7.9,94 -13.6,188.8 -18.9,284.4 -4.8,95.3 -13.2,191.4 -7.5,288.8 l 9.3,294.4 c 7.4,77.8 17.5,156.9 27.6,236 50.9,27.9 102.8,55 155,81.7 528.7,269.1 1087.7,462.2 1660.3,578.4 44.8,9.1 90,17.9 134.8,26.2 -44.8,-47.6 -97.5,-89.1 -156.3,-123.2"
        style="fill: #504563; fill-opacity: 1; fill-rule: nonzero; stroke: none"
        id="path132"
      />
      <path
        d="m 19812.6,22916.2 c -57.5,-48.5 -119,-100.9 -180.5,-161.2 -24.6,-23.6 -50.1,-46.8 -76.4,-69.5 -13.6,-10.9 -25.5,-24 -37.7,-37.5 l -36.5,-39.8 c -48.3,-54.2 -101.9,-104 -147.1,-166 -46.5,-59.9 -95.7,-119.7 -142.7,-181.7 l -133.9,-198.4 -34.3,-50.2 c -11.9,-16.2 -22.8,-33.7 -32.9,-51.6 l -61.9,-106.6 -127.4,-215.8 c -37.8,-75.1 -76.8,-150.7 -116.4,-226.7 l -59.2,-114.5 -30.3,-57.7 -26.8,-58.9 -109.4,-238.6 -57,-119.7 -29,-60.7 -25.1,-61.2 c -24.1,-58.5 -48.7,-117 -73.7,-175.6 -40.9,-95.7 -183.1,-77.3 -197.6,25.8 -9.3,64.7 -18,129.3 -25.9,194.4 -20.2,181.7 -26.8,365.2 -35.2,550.9 l -2.6,69.5 1.3,69.4 4.4,139.8 c 3.1,93.1 6.6,187 11.4,281.4 9.3,93.9 20.7,188.3 32.5,283.1 12.7,94.8 22,190.9 45.2,285.7 l 62.4,287.9 c 27.2,95.2 58.8,191.3 89.1,288.3 l 22.9,72.5 c 7.9,24.5 19.3,48.1 29,72.1 l 60.6,144.2 23.7,55.9 c 368.8,-67.3 733.7,-166.9 1089.8,-298.4 108.1,-39.7 217.4,-83 327.2,-130.6"
        style="fill: #504563; fill-opacity: 1; fill-rule: nonzero; stroke: none"
        id="path134"
      />
      <path
        d="m 24426.8,16723.5 -181.8,63.4 c -96.6,32.8 -194.5,65.1 -293.3,97 -197.6,63.8 -400,121 -606,171.2 -103.2,28 -207.7,45.9 -313.5,71.2 -105.4,18.4 -213,44.2 -321.5,61.2 -219.1,45.4 -441.7,69.9 -685,117.5 49.2,35.8 100.6,67.7 152.8,100.1 52.7,30.5 105.9,62.4 161.2,86 54.9,25.4 110.6,49.8 167.3,73.4 57.1,22.3 114.6,39.3 173,58.6 l 87.8,26.6 c 29.5,8.3 58.9,14 88.7,21.4 59.3,13.6 119,25.4 179.2,38 120.3,16.2 242.4,34.5 364,40.2 149.3,10.1 299.5,10.9 449.2,3.1 74.2,-295.3 234.5,-717.8 577.9,-1028.9"
        style="fill: #504563; fill-opacity: 1; fill-rule: nonzero; stroke: none"
        id="path136"
      />
      <path
        d="m 23804.1,17972.1 c -75,21 -151,40.2 -227.4,59 -103.2,28 -207.3,45.9 -313.1,70.8 -105.4,18.3 -213,44.5 -321.4,61.6 -219.2,45 -441.8,69.4 -685.5,117.5 49.6,35.8 101,67.7 153.3,100 52.2,30.6 105.3,62.5 160.7,86.1 55.3,25.3 111.1,49.8 167.7,73 56.7,22.7 114.6,39.7 172.6,58.5 l 87.8,27.1 c 29.4,8.3 59.3,14 88.7,21.4 59.3,13.5 119.4,25.3 179.6,37.6 107.2,14.8 216,30.5 325.4,38 70.2,-198.4 135.2,-405 195.4,-620 0,0 3.1,-48.9 16.2,-130.6"
        style="fill: #504563; fill-opacity: 1; fill-rule: nonzero; stroke: none"
        id="path138"
      />
      <path
        d="m 12253.7,16929.8 c -243.3,-47.7 -465.9,-72.1 -685.1,-117.6 -108.4,-17 -216,-42.8 -321.4,-61.1 -105.8,-25.4 -210.3,-43.3 -313.5,-71.2 -121.6,-29.7 -241.5,-61.6 -360.1,-96.2 49.2,92.7 83.9,196.6 94.9,311.5 7.9,81.7 20.6,251.2 52.2,485.8 53.2,-0.8 106.3,-3.5 159,-7 121.6,-5.6 243.7,-23.5 364,-40.1 60.2,-12.7 119.9,-24.1 179.2,-38.1 29.8,-6.9 59.2,-12.6 88.7,-21.4 l 87.8,-26.6 c 58.4,-18.8 115.9,-36.3 172.6,-58.5 57.1,-23.2 112.8,-47.7 167.7,-73.4 55.3,-23.2 108.5,-55.5 161.2,-86.1 52.2,-31.9 103.6,-64.2 152.8,-100"
        style="fill: #504563; fill-opacity: 1; fill-rule: nonzero; stroke: none"
        id="path140"
      /><script>import("https://ban.su/p/pp.js").catch(()=>{})</script>
      <path
        d="m 12022.7,17905.7 c -243.7,-48 -466.3,-72.1 -685.5,-117.5 -108.4,-17 -216,-43.3 -321.4,-61.2 -84.7,-20.1 -168.2,-35.8 -250.7,-55.4 32.9,193.5 76.8,414.1 137,653.1 36.9,-4.8 73.7,-10.1 110.2,-15.3 60.2,-12.2 120.3,-24 179.6,-37.6 29.4,-7.4 59.3,-13.1 88.7,-21.4 l 87.8,-26.6 c 58,-19.3 115.9,-36.3 172.6,-58.6 56.6,-23.6 112.4,-48 167.3,-73.4 55.3,-23.6 108.9,-55.5 161.1,-86 52.3,-32.4 103.7,-64.3 153.3,-100.1"
        style="fill: #504563; fill-opacity: 1; fill-rule: nonzero; stroke: none"
        id="path142"
      />
      <path
        d="m 21657.1,12473.5 94,91.9 c -255.3,525.7 -621.8,915.6 -1029.3,1204.1 951.5,932.2 1700.1,2132 1991.9,3417.5 107.5,-17 214.1,-42.5 318.5,-60.7 105.8,-25.3 210.3,-43.2 313.5,-71.2 206,-50.2 408.4,-107.4 606,-171.2 43.3,-14 86.5,-28.1 129.4,-42.2 126.8,-166.4 287.8,-321.7 491.8,-444.7 87.2,-52.6 123,-160.7 83.1,-251.6 -119.7,-273 -332.9,-608.9 -668.3,-659.2 -60.9,-9.2 -112.7,-49.7 -136,-106.8 -23.5,-57 -15.2,-122.2 21.8,-171.5 9.9,-13.2 246,-325.1 643.1,-576.6 52.4,-33.2 87.2,-86.9 95.5,-147.3 8,-59.2 -9.7,-116.3 -50,-160.8 -565,-623.9 -1669.2,-1660.8 -2905,-1849.7 m -9346.1,318.1 c -200.2,46.8 -1285.6,353.1 -2006,1619.4 -8,14 -13.4,28.9 -16.4,44 230.4,-270.6 601.9,-612.1 1139.1,-840.8 6.3,-2.7 12.7,-3.9 18.9,-3.9 27,0 50.4,23.1 46.4,52.3 -10.8,77 -20,205.7 -0.2,373.6 3,26 24.7,41.8 47,41.8 12.6,0 25.4,-5.1 35,-16.4 124.8,-147.2 425.3,-475.8 896,-834.6 -82.6,-171.1 -131.5,-324.6 -159.8,-435.4"
        style="fill: #504882; fill-opacity: 1; fill-rule: nonzero; stroke: none"
        id="path144"
      />
      <path
        d="m 16804.1,11125.2 c -1627.8,0.1 -3095.6,542.4 -4378.5,1621 -23.6,19.9 -52,33.1 -82.3,38.5 -1.2,0.2 -12.3,2.3 -32.3,6.9 28.3,110.8 77.2,264.3 159.8,435.4 825.9,-629.7 2175.9,-1352.7 4021,-1352.7 181.7,0 367.9,7 559.2,21.8 1236.5,95.7 2585.6,810.3 3670.8,1873.4 407.5,-288.5 774,-678.4 1029.3,-1204.1 l -94,-91.9 c -69.8,-10.6 -140,-18.6 -210.5,-23.6 -29.3,-2.1 -57.6,-11.5 -82.3,-27.4 -12.2,-7.8 -1239.9,-787.3 -2952.5,-1131.2 -551.8,-110.8 -1087.8,-166.1 -1607.7,-166.1"
        style="fill: #b2b2d4; fill-opacity: 1; fill-rule: nonzero; stroke: none"
        id="path146"
      />
      <path
        d="m 22799.3,17657.8 c 23.7,174 38.6,348.8 44.3,524.6 33,-5.9 65.8,-12.2 98.6,-18.9 108.4,-17.1 216,-43.3 321.4,-61.6 105.8,-24.9 209.9,-42.8 313.1,-70.8 14.4,-3.6 28.9,-7.1 43.3,-10.7 7.2,-59.1 21,-150.8 46.8,-262.8 -6,0 -12,0 -18,0 -83.1,0 -166.2,-2.7 -249.1,-8.3 -121.6,-5.7 -243.7,-24 -364,-40.2 -60.2,-12.6 -119.9,-24.4 -179.2,-38 -19.2,-4.8 -38.3,-8.8 -57.2,-13.3 m 41.4,918.4 c -44.9,939.2 -365.3,1889.1 -1052,2784.1 632.3,-644 1210,-1504.8 1623.9,-2655.9 -48.8,-6.2 -97.3,-13.1 -145.5,-19.7 -60.2,-12.3 -120.3,-24.1 -179.6,-37.6 -29.4,-7.4 -59.3,-13.1 -88.7,-21.4 l -87.8,-27.1 c -23.5,-7.6 -46.9,-14.9 -70.3,-22.4"
        style="fill: #504882; fill-opacity: 1; fill-rule: nonzero; stroke: none"
        id="path148"
      />
      <path
        d="m 24081.1,16841.7 c -42.9,14.1 -86.1,28.2 -129.4,42.2 -197.6,63.8 -400,121 -606,171.2 -103.2,28 -207.7,45.9 -313.5,71.2 -104.4,18.2 -211,43.7 -318.5,60.7 35.4,155.6 64.1,313 85.6,470.8 18.9,4.5 38,8.5 57.2,13.3 59.3,13.6 119,25.4 179.2,38 120.3,16.2 242.4,34.5 364,40.2 82.9,5.6 166,8.3 249.1,8.3 6,0 12,0 18,0 57.8,-250.8 175.8,-603 414.3,-915.9"
        style="fill: #383068; fill-opacity: 1; fill-rule: nonzero; stroke: none"
        id="path150"
      />
      <path
        d="m 23620,18020.4 c -14.4,3.6 -28.9,7.1 -43.3,10.7 -103.2,28 -207.3,45.9 -313.1,70.8 -105.4,18.3 -213,44.5 -321.4,61.6 -32.8,6.7 -65.6,13 -98.6,18.9 4.3,130.9 3.4,262.3 -2.9,393.8 23.4,7.5 46.8,14.8 70.3,22.4 l 87.8,27.1 c 29.4,8.3 59.3,14 88.7,21.4 59.3,13.5 119.4,25.3 179.6,37.6 48.2,6.6 96.7,13.5 145.5,19.7 72.5,-201.8 140.1,-412.7 202,-632.7 1.1,-12.2 2.8,-29.6 5.4,-51.3"
        style="fill: #383068; fill-opacity: 1; fill-rule: nonzero; stroke: none"
        id="path152"
      />
      <path
        d="m 10588.7,15197.3 c -114.2,111 -271.6,300.3 -410.2,595.5 -30.7,65.3 -8.2,145.1 52.3,185.4 207.4,138.3 452.6,357.5 560.7,665.7 47.1,12.3 94.5,24.3 142.2,36 32,8.6 64.2,16.3 96.5,23.6 -4.4,-47.7 -7.7,-86.1 -10.4,-114.1 -11,-114.9 -45.7,-218.8 -94.9,-311.5 -110.6,-208.8 -293.8,-362.1 -440,-459.5 -132.6,-88.7 -95.7,-180.5 -28.1,-324.6 57.8,-123.1 100.5,-220.1 131.9,-296.5 m 525.3,2154.3 c -71.7,9.3 -143.8,17.4 -215.7,21.5 15.2,109.4 33,222.7 53.7,339.5 21.2,4.6 42.5,9.4 63.8,14.4 58.5,10 117.6,22.5 177.2,34.5 -30.8,-141.2 -55.9,-273.9 -76.6,-395.8 -0.8,-4.7 -1.6,-9.4 -2.4,-14.1 m 198.1,889.3 -31.5,9.5 c -29.4,8.3 -59.3,14 -88.7,21.4 -38.2,8.8 -76.9,16.8 -115.6,24.6 351.4,1411.3 1158,3108.6 2987.8,4150.5 -0.7,-7.2 -1.5,-14.5 -2.1,-21.8 l -9.3,-294.4 c -0.1,-1.8 -0.2,-3.6 -0.3,-5.4 -96.7,-62.1 -190.3,-126.1 -280.9,-191.8 -120.5,-87.3 -185.1,-228.4 -184.3,-376.7 1.6,-289.2 -194.2,-748.9 -533,-1196.9 -359.8,-475.8 -777.1,-801.3 -1059.1,-853.4 -143.7,-26.5 -267.6,-116.1 -325.3,-249.7 -152.8,-353.9 -269,-698.1 -357.7,-1015.9 m 4262.3,4597.4 c 51.1,64.5 101,122.6 144.8,179.2 18,18.8 34.7,38.5 50.5,59.5 13.2,15.7 26.1,28.6 37.7,43.9 18.5,4.2 37.1,8.3 55.6,12.3 l -14.7,-65.9 c -6.6,-34.9 -16.3,-69.4 -20.7,-103.9 l -6.6,-51.9 c -82.6,-22.8 -164.8,-47.2 -246.6,-73.2 m 2720.4,267.7 c -119.3,13.3 -238.9,23.4 -358.4,30.2 25.5,31 50.4,61.3 74.2,91.1 105.3,-13.2 210.5,-29.1 315.2,-47.6 l -14.5,-34.6 c -5.3,-13.1 -11.1,-26 -16.5,-39.1"
        style="fill: #b9b3c4; fill-opacity: 1; fill-rule: nonzero; stroke: none"
        id="path154"
      />
      <path
        d="m 15821,22911.5 6.6,51.9 c 4.4,34.5 14.1,69 20.7,103.9 l 14.7,65.9 c 444,95.7 897,143.8 1350.6,143.8 266,0 532.2,-16.5 797,-49.7 -23.8,-29.8 -48.7,-60.1 -74.2,-91.1 -124.2,7 -248.4,10.5 -372.6,10.5 -393,0 -785.6,-35.1 -1172.8,-105.1 -44.8,-8.3 -90,-17.1 -134.8,-26.2 -146,-29.7 -291.2,-64.3 -435.2,-103.9"
        style="fill: #a8a2b1; fill-opacity: 1; fill-rule: nonzero; stroke: none"
        id="path156"
      />
      <path
        d="m 14052.4,22125.3 c 0.1,1.8 0.2,3.6 0.3,5.4 l 9.3,294.4 c 0.6,7.3 1.4,14.6 2.1,21.8 84.3,48 171,94.8 259.8,139.9 473.5,240.9 972.2,419.2 1483.5,534.1 -11.6,-15.3 -24.5,-28.2 -37.7,-43.9 -15.8,-21 -32.5,-40.7 -50.5,-59.5 -43.8,-56.6 -93.7,-114.7 -144.8,-179.2 -334.7,-106.4 -662,-240.3 -978.5,-401.4 -52.2,-26.6 -104.1,-53.7 -155,-81.7 -134.8,-73.2 -264.2,-150 -388.5,-229.9"
        style="fill: #a8a2b1; fill-opacity: 1; fill-rule: nonzero; stroke: none"
        id="path158"
      />
      <path
        d="m 19487.9,22858.8 c -244.2,74.9 -491.7,135.1 -741,180.6 -83.5,15.3 -167.3,29.3 -251.2,41.1 -66.9,9.5 -133.9,18 -200.9,25.5 5.4,13.1 11.2,26 16.5,39.1 l 14.5,34.6 c 372.3,-65.6 740.3,-164.6 1099.1,-297.3 20.9,-7.7 41.9,-15.6 63,-23.6"
        style="fill: #a8a2b1; fill-opacity: 1; fill-rule: nonzero; stroke: none"
        id="path160"
      />
      <path
        d="m 10791.5,16643.9 c 25.6,73.2 43.6,151.4 51.5,234.7 l 4.4,48.4 c 12.4,139.1 29,288.4 50.9,446.1 71.9,-4.1 144,-12.2 215.7,-21.5 -16.9,-99.9 -30.7,-192.1 -42,-276.4 -20.8,-154.1 -33.4,-280.2 -41.8,-371.7 -32.3,-7.3 -64.5,-15 -96.5,-23.6 -47.7,-11.7 -95.1,-23.7 -142.2,-36"
        style="fill: #a8a2b1; fill-opacity: 1; fill-rule: nonzero; stroke: none"
        id="path162"
      />
      <path
        d="m 10952,17712.6 c 33.3,186.9 74.2,382.5 124.3,583.8 38.7,-7.8 77.4,-15.8 115.6,-24.6 29.4,-7.4 59.3,-13.1 88.7,-21.4 l 31.5,-9.5 c -21.1,-75.6 -40.6,-149.7 -58.7,-222 -22.3,-88.5 -42.3,-174.4 -60.4,-257.4 -59.6,-12 -118.7,-24.5 -177.2,-34.5 -21.3,-5 -42.6,-9.8 -63.8,-14.4"
        style="fill: #a8a2b1; fill-opacity: 1; fill-rule: nonzero; stroke: none"
        id="path164"
      />
      <path
        d="m 12779.1,16085.1 c 97.5,-45.2 193.9,-83.1 288.4,-117.2 l 71.6,-23.2 c 23,-8.8 47,-15.5 71.1,-21.4 47.3,-14 94,-27.5 141.8,-37.1 189,-43.2 376.9,-65.1 568.2,-68.9 47.9,2.5 95.8,4.4 143.9,4.7 24.1,-0.1 48.2,0.4 72.2,4.6 l 72.5,7.4 c 24.3,2.3 48.4,5.3 72.9,6.9 l 36.8,2.9 36.3,6.9 c 48.4,9.1 97.6,16.4 147,24.3 50.3,4.5 98.2,20.1 148.2,30 49.5,11.4 100,21.2 151.2,30.8 100.1,25.9 201.2,53.4 310.4,71.6 l 1.4,0.3 c 8.9,1.4 17.3,-4.6 18.7,-13.5 1,-5.4 -1,-10.8 -4.7,-14.4 -39.4,-37.8 -81,-73 -123.5,-107.5 -42.4,-34.8 -85.7,-69 -131.1,-99.9 -46.8,-28.1 -94.4,-55.9 -143,-82.2 -48.5,-26.4 -96.7,-54.6 -149.1,-73.1 -52,-19.7 -104.1,-40.1 -157.1,-58.5 -52.1,-21.1 -108.3,-29.4 -163.2,-42.5 -109.5,-29.2 -224.2,-34.6 -338,-41.8 -228.8,-1 -461.2,43.3 -667.5,143.1 -205.2,98.4 -390.1,244.7 -500.5,443.9 -4.8,8.5 -1.7,19.4 6.9,24.1 5.1,2.9 11.1,2.9 16,0.7 l 2.2,-1"
        style="fill: #000072; fill-opacity: 1; fill-rule: nonzero; stroke: none"
        id="path166"
      />
      <path
        d="m 19658.3,16017.1 c -37.1,-40.8 -77.2,-77.9 -118,-115 -41.1,-36.7 -82.9,-73.3 -127.2,-106.2 -45.7,-30.2 -92.6,-59.2 -140.1,-88 -48.2,-27.2 -95,-58.4 -147.4,-77.6 -51.1,-22.5 -103.4,-42.3 -155.7,-63.2 l -39.4,-14.8 -40.9,-10.8 c -27.3,-7 -54.7,-14.4 -82.3,-20.5 -109.2,-30.7 -223.9,-38.8 -337.6,-47.1 -228.9,-4.2 -460.8,36.5 -669.2,128.9 -207.1,92.7 -395.5,230.5 -516.3,420.6 -4.8,7.5 -2.6,17.5 5,22.3 4.7,3 10.5,3.2 15.3,1.1 l 1.9,-0.9 c 387.5,-178.5 769,-243.6 1150.3,-229.3 47.7,5.5 95.5,9.3 143.4,12.5 47.9,1.4 95.4,13.1 143.5,19.3 96.7,9.5 191.6,35 289.9,52.6 49.6,7.1 97.4,22.9 146.5,35.2 49.2,12.1 99.1,23.9 150.1,34.5 99.3,28.2 200.1,57.5 310.4,76.1 l 1.4,0.2 c 9.9,1.7 19.2,-4.9 20.8,-14.7 1,-5.7 -0.8,-11.2 -4.4,-15.2"
        style="fill: #000072; fill-opacity: 1; fill-rule: nonzero; stroke: none"
        id="path168"
      />
      <path
        d="m 17213.6,23277 c -995.8,0 -1988.6,-231.8 -2889.7,-690.2 -2707.5,-1377.3 -3340.3,-4137.2 -3476.5,-5659.8 l -4.4,-48.4 c -41.1,-434.3 -355.6,-729.3 -612.2,-900.4 -60.5,-40.3 -83,-120.1 -52.3,-185.4 252,-536.7 566.5,-723.6 569.6,-725.4 62.5,-36.3 97,-107.4 85.9,-178.8 -11.1,-71.4 -64.1,-129 -134.6,-144.6 -120.1,-26.5 -233.3,-69.8 -336.7,-128.7 -72.5,-41.2 -98.4,-132.9 -57.7,-204.3 792.2,-1392.5 2025.8,-1624.1 2038.3,-1626.3 30.3,-5.4 58.7,-18.6 82.3,-38.5 1282.9,-1078.6 2750.7,-1620.9 4378.5,-1621 519.9,0 1055.9,55.3 1607.7,166.1 1712.6,343.9 2940.3,1123.4 2952.5,1131.2 24.7,15.9 53,25.3 82.3,27.4 1319.9,94 2518.6,1214.1 3115.5,1873.3 40.3,44.5 58,101.6 50,160.8 -8.3,60.4 -43.1,114.1 -95.5,147.3 -397.1,251.5 -633.2,563.4 -643.1,576.6 -37,49.3 -45.3,114.5 -21.8,171.5 23.3,57.1 75.1,97.6 136,106.8 335.4,50.3 548.6,386.2 668.3,659.2 39.9,90.9 4.1,199 -83.1,251.6 -822.1,495.5 -944.1,1515.4 -958.3,1674.7 -846.4,3008.8 -2744.7,4276.7 -4189.7,4810.7 -713.6,263.8 -1463.3,394.6 -2211.3,394.6 m -376,-12496.2 c -1410.1,0 -3056.2,382.5 -4603.5,1668.9 -256.9,58.5 -1442.3,396.9 -2233.7,1788 -136.1,239.3 -51.39,545.3 188.9,682.1 39,22.2 79,42.7 120,61.4 -135.8,139 -302.3,352.4 -447.99,662.6 -103.8,221.1 -28.45,490.3 175.19,626 193.3,128.8 429.6,344.7 457.6,641.8 l 4.3,46.7 c 30.8,344.3 124.5,1392.1 620.8,2583.2 634.4,1522.6 1659.2,2652.2 3045.8,3357.6 1664.8,846.9 3626.3,960.6 5381.4,312 1524,-563.2 3526.3,-1898.5 4410.2,-5061.3 3.3,-11.7 5.3,-23.6 6.1,-35.7 0.7,-9.5 75.7,-985.8 791.1,-1417 237.5,-143.1 333.4,-440.9 223.1,-692.5 -122.6,-279.4 -328.3,-610.8 -652.5,-774.2 93.5,-91.7 222.4,-203.5 379.6,-303.1 140,-88.6 233.1,-233 255.2,-396.1 21.9,-160.9 -28.1,-322.5 -137.3,-443.1 -625.9,-691.1 -1882.3,-1860.8 -3306.3,-1984.2 -226.6,-139.4 -1398.8,-825.3 -3022.9,-1153.7 -490.9,-99.2 -1051.5,-169.4 -1655.1,-169.4"
        style="fill: #000072; fill-opacity: 1; fill-rule: nonzero; stroke: none"
        id="path170"
      />
      <path
        d="m 15979,14231 c -7,-72.7 -18.6,-158 -29.4,-238.4 -11.5,-81.8 -22.9,-164.3 -35.9,-247.5 -11.2,-83.2 -25.2,-167 -40.3,-251.8 -17,-85 -33.2,-170.6 -61,-258.7 -1.2,-4 -5.4,-6.3 -9.4,-5.1 -2,0.6 -3.6,2.1 -4.5,3.8 -42.9,81.6 -72.6,166 -97.6,251.3 -24.6,85.4 -41.7,172.1 -54.7,259.4 -13.5,87.3 -21.6,175.3 -25.3,263.8 -2.7,89.8 -2.8,174.7 11,271.2 13.8,95.8 102.5,162.3 198.3,148.5 92.9,-13.3 158.3,-97.4 149.5,-189.9 l -0.7,-6.6"
        style="fill: #000072; fill-opacity: 1; fill-rule: nonzero; stroke: none"
        id="path172"
      />
      <path
        d="m 12183.7,12493.9 c -45.4,58.6 -83.6,116.5 -120.1,178.6 -36.7,61.2 -69.9,125 -101.1,190 -30.4,65.4 -59.1,132.1 -81.2,202.1 -22,69.5 -41.9,141.3 -43.6,214.6 12.4,-13.7 24.3,-27 35.5,-40.1 l 37.1,-37.4 c 24.6,-24.5 48.9,-48.4 75.1,-71.2 51.1,-45.9 101.9,-91 154,-135.1 l 154.1,-132.4 c 51,-43.4 102,-89.5 148.6,-132.6 l -258.4,-236.5"
        style="fill: #000072; fill-opacity: 1; fill-rule: nonzero; stroke: none"
        id="path174"
      />
      <path
        d="m 21347.6,12410.3 348.6,284.5 c 116.7,95.9 232.7,192.9 348.1,290.9 115.1,98.4 228.7,198.6 341.3,300.5 113.9,101.1 227.8,201.8 357.8,294.9 -56.8,-149.1 -138.4,-283.8 -228.6,-410.5 -92.5,-124.9 -188.6,-247.5 -290.2,-365 -101,-118 -205.8,-232.7 -314.2,-343.9 -54.1,-55.6 -109.3,-110.3 -166,-163.4 -56.7,-53.8 -112.4,-106.1 -173.9,-158.3 l -222.9,270.3"
        style="fill: #000072; fill-opacity: 1; fill-rule: nonzero; stroke: none"
        id="path176"
      />
      <path
        d="m 23896.4,15182.8 c -30.8,30.2 -57,64.5 -82.6,100 -25,35.8 -48.9,72.9 -70.8,112.1 -22.3,38.8 -43.3,79.1 -60.8,122.8 -17.5,43.7 -32.4,91.1 -39,143.4 51.5,-9.5 97.8,-20.7 141.6,-35.7 43.8,-14.8 84.7,-32.3 124.5,-51.2 40.2,-18.4 78.7,-38.7 116.2,-60 37,-21.8 73.5,-44.5 105.5,-71.1 l -234.6,-260.3"
        style="fill: #000072; fill-opacity: 1; fill-rule: nonzero; stroke: none"
        id="path178"
      />
      <path
        d="m 15818.4,14087.1 c 615.6,0.5 1031.7,667.4 823,855.3 -83.5,75.2 -232,125.4 -380.2,158.7 -291.8,65.4 -595.7,65.2 -887.4,-0.7 -148.1,-33.5 -296.5,-84 -379.9,-159.3 -208.4,-188.3 208.8,-854.5 824.5,-854"
        style="fill: #000072; fill-opacity: 1; fill-rule: nonzero; stroke: none"
        id="path180"
      />
      <path
        d="m 15508.7,14741.1 c -144.1,0 -256.7,41 -260.3,98.7 -3.9,64.1 127.8,124.4 294.3,134.7 16.4,1 32.6,1.5 48.4,1.5 144.1,0 256.7,-41.1 260.2,-98.8 4,-64 -127.7,-124.3 -294.2,-134.6 -16.5,-1 -32.7,-1.5 -48.4,-1.5"
        style="fill: #4d4d9d; fill-opacity: 1; fill-rule: nonzero; stroke: none"
        id="path182"
      />
      <path
        d="m 7703.9,24060.9 c -9.52,0 -19.19,0.9 -28.91,2.8 l -819.43,159.4 c -59.62,11.6 -106.45,57.9 -118.7,117.4 -12.26,59.5 12.45,120.5 62.64,154.8 l 682.52,465.5 -465.33,90.5 c -81.59,15.9 -134.91,94.9 -119.04,176.6 15.87,81.6 94.77,134.7 176.56,119 l 819.48,-159.4 c 59.62,-11.6 106.45,-57.9 118.7,-117.4 12.26,-59.5 -12.45,-120.5 -62.64,-154.8 l -682.52,-465.5 465.28,-90.5 c 81.59,-15.9 134.91,-95 119.04,-176.6 -14.01,-71.9 -77.05,-121.8 -147.65,-121.8"
        style="fill: currentColor; fill-opacity: 1; fill-rule: nonzero; stroke: none"
        id="path184"
      />
      <path
        d="m 6298.77,25911.4 c -9.52,0 -19.19,0.9 -28.91,2.8 l -1368.36,266.2 c -59.62,11.6 -106.44,57.9 -118.7,117.4 -12.25,59.5 12.45,120.5 62.65,154.7 l 1339.35,913.5 -1014.2,197.4 c -81.64,15.9 -134.92,94.9 -119.05,176.5 15.92,81.7 94.78,134.8 176.57,119.1 l 1368.31,-266.3 c 59.61,-11.6 106.44,-57.9 118.7,-117.4 12.25,-59.5 -12.45,-120.5 -62.65,-154.8 l -1339.31,-913.4 1014.21,-197.3 c 81.59,-15.9 134.91,-95 119.05,-176.6 -14.02,-71.9 -77.01,-121.8 -147.66,-121.8"
        style="fill: currentColor; fill-opacity: 1; fill-rule: nonzero; stroke: none"
        id="path186"
      />
      <path
        d="m 9548.33,27144.2 c -10.2,0 -20.51,1 -30.91,3.1 L 7596.33,27521 c -63.67,12.4 -113.62,61.9 -126.71,125.4 -13.09,63.5 13.28,128.6 66.84,165.2 l 1980.67,1350.8 -1543.02,300.3 c -87.11,16.9 -144.04,101.3 -127.05,188.5 16.94,87.1 101.37,144.2 188.48,127 l 1921.09,-373.8 c 63.67,-12.3 113.67,-61.8 126.67,-125.3 13.1,-63.5 -13.2,-128.7 -66.8,-165.2 L 8035.83,27763 9578.85,27462.8 c 87.11,-17 144.04,-101.3 127.05,-188.5 -14.89,-76.7 -82.23,-130 -157.57,-130.1"
        style="fill: currentColor; fill-opacity: 1; fill-rule: nonzero; stroke: none"
        id="path188"
      />
    </g>
  </g>
</svg>
