<svg xmlns="http://www.w3.org/2000/svg" viewBox="0 0 280.39 245.7"><defs><style>.cls-1{fill:#0f7250;}.cls-2{fill:#fff;}.cls-3{fill:#0b8982;}.cls-4{fill:#90cec6;}.cls-5{fill:#167b6e;}.cls-6{fill:#6ab42f;}.cls-7{isolation:isolate;}</style></defs><g id="Слой_2" data-name="Слой 2"><g id="Слой_4" data-name="Слой 4"><g id="Слой_3" data-name="Слой 3"><polygon class="cls-1" points="79.21 70.34 64.35 70.34 43.4 49.26 23.82 49.26 23.82 26.3 30.61 26.3 30.61 42.47 46.23 42.47 67.17 63.55 79.21 63.55 79.21 70.34"/><polygon class="cls-1" points="79.21 95.69 40.59 95.69 24.65 77.29 29.79 72.84 43.69 88.9 79.21 88.9 79.21 95.69"/><polygon class="cls-1" points="111.98 43.56 105.19 43.56 105.19 27.3 79.98 9.15 27.22 9.15 27.22 2.36 82.17 2.36 111.98 23.82 111.98 43.56"/><rect class="cls-1" x="201.21" y="105.91" width="53.72" height="6.79"/><g id="_2004020394688" data-name=" 2004020394688"><path class="cls-2" d="M31.67,75.07a4.58,4.58,0,1,1-4.58-4.59h0a4.58,4.58,0,0,1,4.58,4.58Z"/><path class="cls-1" d="M27.09,80.82a5.76,5.76,0,1,1,5.75-5.75A5.75,5.75,0,0,1,27.09,80.82Zm0-9.17a3.42,3.42,0,1,0,3.42,3.42,3.41,3.41,0,0,0-3.42-3.42Z"/></g><g id="_2004020401744" data-name=" 2004020401744"><path class="cls-2" d="M259.22,109.3a4.59,4.59,0,1,1-4.59-4.58h0A4.59,4.59,0,0,1,259.22,109.3Z"/><path class="cls-1" d="M254.63,115.05a5.75,5.75,0,1,1,5.76-5.75h0A5.76,5.76,0,0,1,254.63,115.05Zm0-9.16a3.42,3.42,0,1,0,3.42,3.41A3.41,3.41,0,0,0,254.63,105.89Z"/></g><rect class="cls-1" x="27.22" y="109.01" width="51.99" height="6.79"/><g id="_2004020411632" data-name=" 2004020411632"><path class="cls-2" d="M22.51,112.4a4.58,4.58,0,1,0,4.58-4.58h0a4.58,4.58,0,0,0-4.58,4.58Z"/><path class="cls-1" d="M27.09,118.16a5.76,5.76,0,1,1,5.75-5.76h0A5.76,5.76,0,0,1,27.09,118.16Zm0-9.17a3.41,3.41,0,1,0,3.42,3.41A3.4,3.4,0,0,0,27.09,109Z"/></g><g id="_2004020414320" data-name=" 2004020414320"><path class="cls-2" d="M31.67,5.76a4.58,4.58,0,1,1-4.58-4.59,4.58,4.58,0,0,1,4.58,4.59Z"/><path class="cls-1" d="M27.09,11.51a5.76,5.76,0,1,1,5.75-5.76h0A5.74,5.74,0,0,1,27.09,11.51Zm0-9.16a3.41,3.41,0,1,0,3.42,3.41A3.4,3.4,0,0,0,27.09,2.35Z"/></g><g id="_2004020426416" data-name=" 2004020426416"><path class="cls-2" d="M31.67,25.56A4.58,4.58,0,1,1,27.08,21h0A4.57,4.57,0,0,1,31.67,25.56Z"/><path class="cls-1" d="M27.09,31.31a5.76,5.76,0,1,1,5.75-5.76h0A5.75,5.75,0,0,1,27.09,31.31Zm0-9.17a3.42,3.42,0,1,0,3.42,3.42A3.41,3.41,0,0,0,27.09,22.14Z"/></g><g id="_2004025928416" data-name=" 2004025928416"><path class="cls-2" d="M135.15,231.92a4.58,4.58,0,1,1-4.58-4.59h0a4.58,4.58,0,0,1,4.58,4.58Z"/><path class="cls-1" d="M130.56,237.67a5.76,5.76,0,1,1,5.76-5.76h0A5.76,5.76,0,0,1,130.56,237.67Zm0-9.17a3.42,3.42,0,1,0,3.42,3.42A3.42,3.42,0,0,0,130.56,228.5Z"/></g><path class="cls-1" d="M16.44,242.68l-4-5.47,11.29-8.32V163.75a3.4,3.4,0,0,1,.88-2.29l29.1-31.93a3.37,3.37,0,0,1,2.51-1.11h23v6.79H57.69L30.48,165.07v65.54a3.38,3.38,0,0,1-1.38,2.73Z"/><polygon class="cls-1" points="9.11 184.34 9.11 197.78 23.75 197.78 23.75 184.34 30.5 184.34 30.5 218.29 23.75 218.29 23.75 203.11 9.11 203.11 9.11 218.29 2.37 218.29 2.37 184.34 9.11 184.34"/><path class="cls-1" d="M51.23,180l13.29,38.3H57.24l-2.76-8.83H41.19l-2.76,8.83H31.16L44.45,180Zm-8.38,24.13h10l-4.56-14.75h-.87Z"/><path class="cls-1" d="M95,205.58a14.51,14.51,0,0,1-4.26,9.65,14.92,14.92,0,0,1-10.53,3.93,14.76,14.76,0,0,1-11.92-5.33c-3.2-3.84-3.93-8.54-3.93-12.51s.73-8.64,3.93-12.51c2.47-3,6.2-5.34,11.92-5.34a14.58,14.58,0,0,1,10.53,3.93,13.3,13.3,0,0,1,4,9.46h-7a8.68,8.68,0,0,0-2-5.82,6.91,6.91,0,0,0-5.58-2.23,7.82,7.82,0,0,0-7.07,4c-.49.87-1.75,3.29-1.75,8.37,0,2,.2,5.68,1.75,8.38a8.28,8.28,0,0,0,12.75,1.79A8.49,8.49,0,0,0,88,205.55Z"/><path class="cls-1" d="M147,180l13.28,38.25H153l-2.76-8.83H137l-2.76,8.83H127L140.23,180Zm-8.4,24.09h10l-4.56-14.75h-.87Z"/><polygon class="cls-1" points="181.54 184.34 181.54 189.58 173.67 189.58 173.67 239.7 166.88 239.7 166.88 189.58 159.11 189.58 159.11 184.34 181.54 184.34"/><polygon class="cls-1" points="192.69 184.34 192.69 197.78 207.34 197.78 207.34 184.34 214.07 184.34 214.07 218.29 207.34 218.29 207.34 203.11 192.69 203.11 192.69 218.29 185.95 218.29 185.95 184.34 192.69 184.34"/><path class="cls-1" d="M220.38,188.61a16.08,16.08,0,0,1,23.57,0c3.63,4.12,4.21,9.12,4.21,12.71s-.58,8.58-4.21,12.7a16.08,16.08,0,0,1-23.57,0c-3.63-4.12-4.22-9.12-4.22-12.7S216.75,192.73,220.38,188.61Zm4.69,21.19h0a8.46,8.46,0,0,0,14.16,0c1.6-2.47,1.89-5.62,1.89-8.53s-.33-6-1.89-8.54a8.35,8.35,0,0,0-14.16,0c-1.55,2.52-1.89,5.58-1.89,8.54s.3,6.06,1.91,8.53Z"/><path class="cls-1" d="M250.25,199.91c0-4.21,0-8.68,3.64-12.46a13.72,13.72,0,0,1,10.18-3.88c4.27.05,7.91,1.5,10.18,3.88,3.65,3.73,3.65,8.29,3.65,12.51v42.41H271v-43c0-2.48.05-5.24-1.06-7.18a6.51,6.51,0,0,0-5.87-3.15,6.39,6.39,0,0,0-5.82,3.15c-1.16,2-1.11,4.61-1.11,7.18v18.91h-6.89Z"/><g id="_2004025901728" data-name=" 2004025901728"><path class="cls-2" d="M10.33,184.34a4.59,4.59,0,1,1-4.59-4.58h0A4.59,4.59,0,0,1,10.33,184.34Z"/><path class="cls-1" d="M5.74,190.1a5.76,5.76,0,1,1,5.77-5.76,5.75,5.75,0,0,1-5.77,5.76Zm0-9.17a3.42,3.42,0,1,0,3.43,3.41,3.41,3.41,0,0,0-3.43-3.41Z"/></g><g id="_2004025912480" data-name=" 2004025912480"><path class="cls-2" d="M19.49,240a4.58,4.58,0,1,1-4.58-4.59A4.58,4.58,0,0,1,19.49,240Z"/><path class="cls-1" d="M14.91,245.7a5.76,5.76,0,1,1,5.75-5.76h0A5.75,5.75,0,0,1,14.91,245.7Zm0-9.17A3.42,3.42,0,1,0,18.33,240a3.42,3.42,0,0,0-3.42-3.42Z"/></g><g id="_2007148898608" data-name=" 2007148898608"><path class="cls-2" d="M279.22,240a4.59,4.59,0,1,1-4.59-4.59h0A4.6,4.6,0,0,1,279.22,240Z"/><path class="cls-1" d="M274.63,245.7a5.76,5.76,0,1,1,5.76-5.76h0A5.77,5.77,0,0,1,274.63,245.7Zm0-9.17a3.42,3.42,0,1,0,3.42,3.42,3.42,3.42,0,0,0-3.42-3.42Z"/></g><path class="cls-1" d="M51.29,182.74h-6.9V164.09a3.43,3.43,0,0,1,1-2.44L56.1,151a3.4,3.4,0,0,1,2.43-1H79.2v6.89H60l-8.68,8.68Z"/><rect class="cls-3" x="140.49" y="166.41" width="6.29" height="19.47"/><rect class="cls-1" x="140.19" y="166.41" width="6.9" height="19.47"/><rect class="cls-1" x="159.1" y="166.41" width="6.29" height="19.47"/><rect class="cls-1" x="57.25" y="218.27" width="7.26" height="13.38"/><g id="_2007148914688" data-name=" 2007148914688"><path class="cls-2" d="M65.46,231.92a4.59,4.59,0,1,1-4.58-4.59h0a4.58,4.58,0,0,1,4.58,4.58Z"/><path class="cls-1" d="M60.89,237.67a5.76,5.76,0,1,1,5.75-5.76h0A5.75,5.75,0,0,1,60.89,237.67Zm0-9.17a3.42,3.42,0,1,0,3.41,3.42A3.41,3.41,0,0,0,60.89,228.5Z"/></g><polygon class="cls-1" points="115.6 200.25 125.75 184.34 125.75 166.41 119.26 166.41 119.26 184.34 119.26 184.34 110.61 197.87 105.1 197.87 105.1 184.34 98.36 184.34 98.36 218.29 105.1 218.29 105.1 203.01 110.34 203.01 118.34 218.29 125.49 218.29 115.6 200.25"/><polygon class="cls-1" points="134.23 227.98 134.23 218.29 126.97 218.29 126.97 227.98 126.97 227.98 134.23 227.98"/><g id="_2005680116528" data-name=" 2005680116528"><path class="cls-2" d="M170.34,244.53a4.59,4.59,0,1,0-4.59-4.59h0A4.59,4.59,0,0,0,170.34,244.53Z"/><path class="cls-1" d="M170.34,245.7a5.76,5.76,0,1,1,5.75-5.76h0A5.76,5.76,0,0,1,170.34,245.7Zm0-9.17a3.42,3.42,0,1,0,3.41,3.42,3.42,3.42,0,0,0-3.41-3.42Z"/></g><path class="cls-1" d="M229.9,242.73l-20.83-11.65a3.39,3.39,0,0,1-1.74-3V218h6.76v8.15l19.1,10.68Z"/><g id="_2005680109184" data-name=" 2005680109184"><path class="cls-2" d="M230.87,244.53a4.59,4.59,0,1,0-4.58-4.59h0A4.59,4.59,0,0,0,230.87,244.53Z"/><path class="cls-1" d="M230.87,245.7a5.76,5.76,0,1,1,5.76-5.75h0A5.76,5.76,0,0,1,230.87,245.7Zm0-9.17a3.42,3.42,0,1,0,3.42,3.42,3.42,3.42,0,0,0-3.42-3.42Z"/></g><path class="cls-1" d="M185.7,166.41h-6.18l6,6a1.22,1.22,0,0,1,.42.85v11.06h6.7V173.16a.84.84,0,0,0-.33-.67Z"/><path class="cls-1" d="M140.81,43.56H134V26.19L126.6,7l6.33-2.45,7.66,19.81a3.38,3.38,0,0,1,.22,1.22Z"/><g id="_2005680115904" data-name=" 2005680115904"><path class="cls-2" d="M134.35,5.76a4.59,4.59,0,1,1-4.58-4.59,4.58,4.58,0,0,1,4.58,4.59Z"/><path class="cls-1" d="M129.77,11.51a5.76,5.76,0,1,1,5.75-5.75h0A5.75,5.75,0,0,1,129.77,11.51Zm0-9.16a3.41,3.41,0,1,0,3.41,3.41A3.41,3.41,0,0,0,129.77,2.35Z"/></g><path class="cls-1" d="M165.44,43.56h-6.79v-18a3.4,3.4,0,0,1,3.39-3.4h53.1V5.76h6.8v19.8a3.4,3.4,0,0,1-3.4,3.39h-53.1Z"/><g id="_2003665954704" data-name=" 2003665954704"><path class="cls-2" d="M223.12,5.76a4.59,4.59,0,1,1-4.59-4.59,4.59,4.59,0,0,1,4.59,4.59Z"/><path class="cls-1" d="M218.53,11.51a5.76,5.76,0,1,1,5.75-5.76h0A5.75,5.75,0,0,1,218.53,11.51Zm0-9.16a3.41,3.41,0,1,0,3.41,3.42h0A3.41,3.41,0,0,0,218.53,2.35Z"/></g><path class="cls-1" d="M230.29,68.76H201.21V62h25.68V39.73a3.4,3.4,0,0,1,3.4-3.4h21V5.76h6.8v34a3.4,3.4,0,0,1-3.4,3.39h-21V65.36A3.4,3.4,0,0,1,230.29,68.76Z"/><g id="_2003665964640" data-name=" 2003665964640"><path class="cls-2" d="M259.22,5.76a4.59,4.59,0,1,1-4.59-4.59A4.59,4.59,0,0,1,259.22,5.76Z"/><path class="cls-1" d="M254.63,11.51a5.76,5.76,0,1,1,5.76-5.76h0A5.76,5.76,0,0,1,254.63,11.51Zm0-9.16a3.41,3.41,0,1,0,3.42,3.41A3.41,3.41,0,0,0,254.63,2.35Z"/></g><path class="cls-1" d="M252.73,146.3,239,134.7H201.21v-6.79h39.07a3.39,3.39,0,0,1,2.19.81l14.65,12.4Z"/><path class="cls-1" d="M226.27,168l-12.33-11.17H201.08V150h14.16a3.39,3.39,0,0,1,2.28.88l13.3,12Z"/><g id="_2003665938528" data-name=" 2003665938528"><path class="cls-2" d="M250,143.72a4.59,4.59,0,1,1,4.59,4.59,4.6,4.6,0,0,1-4.59-4.59Z"/><path class="cls-1" d="M254.63,149.47a5.75,5.75,0,1,1,5.76-5.75h0A5.76,5.76,0,0,1,254.63,149.47Zm0-9.16a3.41,3.41,0,1,0,3.42,3.41,3.41,3.41,0,0,0-3.42-3.41Z"/></g><path class="cls-1" d="M240.28,91.21H201.21V84.42H239l13.7-11.61L257.12,78l-14.65,12.4A3.34,3.34,0,0,1,240.28,91.21Z"/><g id="_2003665944768" data-name=" 2003665944768"><path class="cls-2" d="M250,75.4a4.59,4.59,0,1,0,4.6-4.58h0A4.59,4.59,0,0,0,250,75.4Z"/><path class="cls-1" d="M254.63,81.16a5.76,5.76,0,1,1,5.76-5.76h0A5.77,5.77,0,0,1,254.63,81.16Zm0-9.17a3.42,3.42,0,1,0,3.42,3.41A3.41,3.41,0,0,0,254.63,72Z"/></g><g id="_2004956208704" data-name=" 2004956208704"><path class="cls-2" d="M232.7,165.43a4.59,4.59,0,1,1-4.59-4.59h0A4.58,4.58,0,0,1,232.7,165.43Z"/><path class="cls-1" d="M228.11,171.18a5.76,5.76,0,1,1,5.76-5.75h0A5.76,5.76,0,0,1,228.11,171.18Zm0-9.17a3.42,3.42,0,1,0,3.42,3.42h0A3.43,3.43,0,0,0,228.11,162Z"/></g><path class="cls-1" d="M193.53,164.09H87.14a5.92,5.92,0,0,1-5.93-5.91h0V51.78a5.92,5.92,0,0,1,5.92-5.92h106.4a5.92,5.92,0,0,1,5.92,5.92V158.17A5.92,5.92,0,0,1,193.53,164.09Z"/><path class="cls-4" d="M183.16,156.39H97.51a5.91,5.91,0,0,1-5.91-5.92v-91a5.92,5.92,0,0,1,5.91-5.92h85.65a5.92,5.92,0,0,1,5.91,5.92v91A5.91,5.91,0,0,1,183.16,156.39Z"/><path class="cls-5" d="M183.16,157.79H97.51a7.31,7.31,0,0,1-7.31-7.32v-91a7.33,7.33,0,0,1,7.31-7.32h85.65a7.33,7.33,0,0,1,7.31,7.32v91A7.31,7.31,0,0,1,183.16,157.79ZM97.51,55A4.51,4.51,0,0,0,93,59.48v91A4.51,4.51,0,0,0,97.51,155h85.65a4.51,4.51,0,0,0,4.51-4.52v-91A4.51,4.51,0,0,0,183.16,55Z"/><path class="cls-2" d="M170.86,49.74A1.86,1.86,0,1,1,169,47.88h0A1.86,1.86,0,0,1,170.86,49.74Z"/><path class="cls-2" d="M164.88,49.74A1.87,1.87,0,1,1,163,47.88h0A1.87,1.87,0,0,1,164.88,49.74Z"/><path class="cls-2" d="M88.11,73.14a1.86,1.86,0,1,1-1.86-1.86h0a1.85,1.85,0,0,1,1.86,1.85Z"/><path class="cls-2" d="M88.11,79.16a1.86,1.86,0,1,1-1.86-1.86h0A1.86,1.86,0,0,1,88.11,79.16Z"/><path class="cls-2" d="M88.11,85.18a1.86,1.86,0,1,1-1.86-1.86h0A1.86,1.86,0,0,1,88.11,85.18Z"/><path class="cls-2" d="M88.11,91.2a1.86,1.86,0,1,1-1.86-1.86h0A1.86,1.86,0,0,1,88.11,91.2Z"/><path class="cls-2" d="M88.11,97.22a1.86,1.86,0,1,1-1.86-1.86h0A1.86,1.86,0,0,1,88.11,97.22Z"/><path class="cls-2" d="M88.11,103.24a1.86,1.86,0,1,1-1.86-1.86h0A1.86,1.86,0,0,1,88.11,103.24Z"/><path class="cls-6" d="M192.81,37.94H87.87a6.64,6.64,0,0,1-6.66-6.63h0V23.35a6.64,6.64,0,0,1,6.64-6.64h105a6.64,6.64,0,0,1,6.64,6.64v8A6.64,6.64,0,0,1,192.81,37.94Z"/><path class="cls-2" d="M192.81,38.93H87.87a7.64,7.64,0,0,1-7.63-7.63V23.35a7.64,7.64,0,0,1,7.63-7.63H192.81a7.63,7.63,0,0,1,7.62,7.63v8A7.63,7.63,0,0,1,192.81,38.93ZM87.87,17.7a5.67,5.67,0,0,0-5.66,5.65v8A5.68,5.68,0,0,0,87.87,37H192.81a5.67,5.67,0,0,0,5.65-5.66V23.35a5.65,5.65,0,0,0-5.65-5.65Z"/><path class="cls-2" d="M199.45,28.31H185a1,1,0,0,1,0-2h14.44a1,1,0,0,1,0,2Z"/><path class="cls-2" d="M185.13,29.74a2.42,2.42,0,1,1,2.41-2.42h0a2.41,2.41,0,0,1-2.41,2.41Z"/><path class="cls-2" d="M95.66,28.31H81.21a1,1,0,0,1,0-2H95.65a1,1,0,0,1,0,2Z"/><path class="cls-2" d="M95.54,24.91a2.42,2.42,0,1,1-2.41,2.42h0A2.41,2.41,0,0,1,95.54,24.91Z"/><g class="cls-7"><path class="cls-2" d="M137.77,96.08l-.53,8.29H100.82V96.6l8.14-4q1.79-.87,6.68-3.72a33.73,33.73,0,0,0,6.38-4.4,4.56,4.56,0,0,0,1.49-3.22,3.06,3.06,0,0,0-1.3-2.58,5.52,5.52,0,0,0-3.41-1q-5.26,0-5.9,5.84l-12.08-1.66a12.92,12.92,0,0,1,6.6-8.87,25.35,25.35,0,0,1,12.45-2.91q7.77,0,12.7,3t4.92,7.84a9.2,9.2,0,0,1-2.68,6.22q-2.69,2.94-15.67,9Z"/></g><g class="cls-7"><path class="cls-2" d="M158.47,104.89q-8.66,0-13.69-4.82t-5.05-12.66q0-8,5.17-12.7t13.81-4.65q9.07,0,13.91,5a17.44,17.44,0,0,1,4.83,12.69q0,7.88-5.2,12.52T158.47,104.89Zm.14-7.18a3.92,3.92,0,0,0,4-2.71,22,22,0,0,0,1-7.41c0-4.31-.45-7.12-1.35-8.45a4.21,4.21,0,0,0-3.66-2,3.89,3.89,0,0,0-3.87,2.62A19.54,19.54,0,0,0,153.71,87q0,6.21,1.06,8.47A3.89,3.89,0,0,0,158.61,97.71Z"/></g><g class="cls-7"><path class="cls-2" d="M137.77,133.05l-.53,8.29H100.82v-7.77l8.14-4c1.19-.57,3.42-1.82,6.68-3.72a33.73,33.73,0,0,0,6.38-4.4,4.56,4.56,0,0,0,1.49-3.21,3.07,3.07,0,0,0-1.3-2.59,5.52,5.52,0,0,0-3.41-1q-5.26,0-5.9,5.84l-12.08-1.65a12.91,12.91,0,0,1,6.6-8.88A25.35,25.35,0,0,1,119.87,107q7.77,0,12.7,3t4.92,7.85a9.19,9.19,0,0,1-2.68,6.21q-2.69,2.94-15.67,9Z"/></g><path class="cls-2" d="M172,115.42H155.27l-.47,4.77a13.88,13.88,0,0,1,7.17-1.9,14.37,14.37,0,0,1,9.08,3,9.71,9.71,0,0,1,3.88,8.06,10.28,10.28,0,0,1-4.52,8.64q-4.53,3.34-11.55,3.34a20,20,0,0,1-10.61-2.73,11.36,11.36,0,0,1-5.49-7.62L153,129.92q1,3.69,5.57,3.69a5.13,5.13,0,0,0,3.6-1.19,3.75,3.75,0,0,0,1.3-2.89,3.53,3.53,0,0,0-1.48-3,5.87,5.87,0,0,0-3.53-1.08,5.55,5.55,0,0,0-4.67,2.12l-9.13-1.08,1.75-19.38H173Z"/></g></g></g></svg>